<svg width="195" height="97" viewBox="0 0 195 97" fill="none" xmlns="http://www.w3.org/2000/svg">
<path d="M187.173 31.0031C188.241 31.284 189.335 30.6456 189.616 29.5773L194.192 12.1688C194.473 11.1005 193.835 10.0069 192.766 9.72605C191.698 9.44522 190.605 10.0836 190.324 11.1518L186.256 26.6261L170.782 22.5582C169.713 22.2774 168.62 22.9157 168.339 23.984C168.058 25.0523 168.696 26.1459 169.765 26.4268L187.173 31.0031ZM4.47862 96.8268C4.60873 96.5304 4.7405 96.2341 4.87389 95.9378L1.22664 94.2954C1.08807 94.6031 0.951154 94.9111 0.815909 95.2192L4.47862 96.8268ZM6.99568 91.5043C7.29172 90.9201 7.59392 90.3365 7.90217 89.7536L4.36624 87.8836C4.04723 88.4868 3.73432 89.091 3.42763 89.6962L6.99568 91.5043ZM10.2933 85.4531C10.6247 84.8849 10.9616 84.3176 11.3041 83.7512L7.88113 81.6816C7.52785 82.2659 7.18009 82.8514 6.83795 83.4381L10.2933 85.4531ZM13.9312 79.5876C14.2943 79.0354 14.6624 78.4843 15.0354 77.9344L11.7254 75.6887C11.3415 76.2545 10.9626 76.8217 10.5888 77.3904L13.9312 79.5876ZM17.8708 73.9087C18.2605 73.3752 18.6547 72.8429 19.0534 72.3121L15.8551 69.9098C15.4457 70.4549 15.0408 71.0015 14.6405 71.5496L17.8708 73.9087ZM22.08 68.4159C22.4932 67.9011 22.9106 67.3878 23.332 66.8761L20.2442 64.3333C19.8123 64.8578 19.3844 65.3841 18.9606 65.912L22.08 68.4159ZM26.532 63.1083C26.9665 62.612 27.4047 62.1174 27.8465 61.6245L24.868 58.9545C24.4158 59.459 23.9672 59.9654 23.5223 60.4736L26.532 63.1083ZM31.2042 57.9855C31.6581 57.5073 32.1154 57.031 32.5759 56.5567L29.7059 53.7705C29.2351 54.2554 28.7675 54.7425 28.3032 55.2315L31.2042 57.9855ZM36.0775 53.0475C36.5495 52.5872 37.0244 52.1289 37.5023 51.6728L34.7403 48.7794C34.2522 49.2454 33.7669 49.7136 33.2847 50.1839L36.0775 53.0475ZM41.1356 48.2953C41.6245 47.8526 42.1161 47.4122 42.6103 46.974L39.9566 43.9811C39.4521 44.4284 38.9502 44.8781 38.451 45.33L41.1356 48.2953ZM46.364 43.7313C46.8692 43.306 47.3768 42.8832 47.8868 42.4628L45.3422 39.3765C44.8218 39.8055 44.3038 40.237 43.7882 40.6711L46.364 43.7313ZM51.7518 39.3575C52.2725 38.9499 52.7954 38.5448 53.3202 38.1424L50.8864 34.968C50.3509 35.3786 49.8175 35.7919 49.2861 36.2078L51.7518 39.3575ZM57.2929 35.1751C57.8274 34.7864 58.3637 34.4003 58.9017 34.0171L56.5812 30.759C56.0323 31.15 55.4851 31.5438 54.9398 31.9405L57.2929 35.1751ZM62.9788 31.1903C63.5266 30.8207 64.076 30.454 64.6269 30.0904L62.4233 26.7521C61.8611 27.1232 61.3005 27.4973 60.7415 27.8746L62.9788 31.1903ZM68.8018 27.4108C69.3628 27.0608 69.9251 26.7141 70.4886 26.3706L68.4068 22.955C67.8314 23.3057 67.2574 23.6597 66.6847 24.017L68.8018 27.4108ZM74.7552 23.8461C75.3293 23.5166 75.9044 23.1905 76.4805 22.868L74.5265 19.3778C73.9379 19.7073 73.3504 20.0404 72.764 20.377L74.7552 23.8461ZM80.8333 20.5079C81.4204 20.1999 82.0082 19.8956 82.5968 19.5952L80.7781 16.0326C80.1763 16.3398 79.5752 16.6509 78.975 16.9658L80.8333 20.5079ZM87.0308 17.4103C87.6308 17.1252 88.2312 16.8443 88.8321 16.5675L87.1583 12.9345C86.5431 13.2179 85.9284 13.5056 85.3143 13.7973L87.0308 17.4103ZM93.3441 14.5699C93.9564 14.3099 94.5689 14.0542 95.1814 13.8031L93.6642 10.1021C93.036 10.3596 92.4081 10.6216 91.7805 10.8882L93.3441 14.5699ZM99.778 12.0042C100.399 11.7729 101.019 11.5463 101.64 11.3246L100.293 7.55798C99.6559 7.78578 99.0185 8.0185 98.381 8.25607L99.778 12.0042ZM106.317 9.74375C106.945 9.54365 107.573 9.34875 108.2 9.1591L107.043 5.33029C106.397 5.52564 105.75 5.72633 105.103 5.93228L106.317 9.74375ZM112.952 7.82033C113.587 7.65449 114.222 7.4943 114.856 7.33983L113.908 3.45367C113.254 3.61327 112.598 3.7787 111.942 3.94989L112.952 7.82033ZM119.671 6.27245C120.314 6.14454 120.955 6.02281 121.594 5.90734L120.883 1.97102C120.22 2.09078 119.556 2.21696 118.89 2.34946L119.671 6.27245ZM126.458 5.14641C127.107 5.061 127.753 4.9824 128.397 4.91068L127.955 0.935236C127.284 1.00996 126.611 1.0918 125.936 1.18067L126.458 5.14641ZM133.288 4.49725C133.941 4.46002 134.591 4.43032 135.239 4.40824L135.103 0.410566C134.424 0.433702 133.743 0.464796 133.061 0.503738L133.288 4.49725ZM140.125 4.38888C140.78 4.40664 141.43 4.43276 142.078 4.46732L142.291 0.473007C141.608 0.436557 140.923 0.409047 140.234 0.390351L140.125 4.38888ZM146.918 4.89255C147.568 4.9729 148.214 5.0625 148.855 5.16142L149.465 1.20815C148.783 1.10305 148.098 1.00797 147.409 0.922782L146.918 4.89255ZM153.606 6.08491C154.239 6.23455 154.868 6.39418 155.491 6.5639L156.542 2.70446C155.875 2.52275 155.203 2.35205 154.527 2.19219L153.606 6.08491ZM160.086 8.03369C160.69 8.2575 161.29 8.49193 161.884 8.7371L163.41 5.03988C162.77 4.77559 162.125 4.52312 161.474 4.28229L160.086 8.03369ZM166.236 10.7825C166.802 11.0831 167.363 11.3949 167.917 11.7179L169.931 8.26173C169.331 7.9119 168.724 7.57442 168.111 7.24914L166.236 10.7825ZM171.937 14.3383C172.456 14.7151 172.969 15.1034 173.475 15.5033L175.955 12.3647C175.406 11.9312 174.85 11.5103 174.288 11.1017L171.937 14.3383ZM177.084 18.661C177.546 19.1085 178.002 19.5674 178.452 20.038L181.344 17.275C180.858 16.7663 180.365 16.2699 179.864 15.7856L177.084 18.661ZM181.598 23.6635C181.995 24.1666 182.386 24.6806 182.77 25.2057L185.999 22.8446C185.586 22.2805 185.166 21.7277 184.739 21.1861L181.598 23.6635ZM185.447 29.2251C185.618 29.5064 185.787 29.7904 185.954 30.077L189.409 28.0607C189.23 27.7547 189.05 27.4515 188.868 27.151L185.447 29.2251Z" fill="#66C63A"/>
</svg>
