<svg width="241" height="81" viewBox="0 0 241 81" fill="none" xmlns="http://www.w3.org/2000/svg">
<path d="M233.588 48.0429C234.669 47.8152 235.729 48.5069 235.957 49.5877L239.667 67.2012C239.895 68.2821 239.203 69.3428 238.122 69.5705C237.041 69.7982 235.981 69.1065 235.753 68.0257L232.455 52.3692L216.799 55.6671C215.718 55.8948 214.657 55.2031 214.429 54.1223C214.202 53.0414 214.893 51.9806 215.974 51.753L233.588 48.0429ZM5.08978 0.228975C5.27724 0.490527 5.46675 0.751906 5.65829 1.0131L2.43265 3.37853C2.2326 3.10573 2.03458 2.83261 1.83859 2.55916L5.08978 0.228975ZM8.68167 4.91618C9.09669 5.42482 9.51919 5.93257 9.94906 6.43935L6.89865 9.02681C6.45259 8.50095 6.0138 7.97364 5.58242 7.44494L8.68167 4.91618ZM13.2325 10.1385C13.6826 10.624 14.1393 11.1084 14.6024 11.5916L11.7146 14.3593C11.2364 13.8604 10.7646 13.36 10.2993 12.8581L13.2325 10.1385ZM18.0937 15.0956C18.574 15.5598 19.0601 16.0228 19.5519 16.4845L16.8142 19.4008C16.3084 18.926 15.8082 18.4496 15.3138 17.9717L18.0937 15.0956ZM23.2139 19.8066C23.7147 20.246 24.2205 20.6841 24.7313 21.1207L22.132 24.1611C21.6084 23.7134 21.0896 23.2642 20.5757 22.8133L23.2139 19.8066ZM28.554 24.289C29.0717 24.7052 29.5937 25.12 30.1201 25.5333L27.6498 28.6793C27.1115 28.2567 26.5774 27.8323 26.0476 27.4064L28.554 24.289ZM34.0837 28.5576C34.6155 28.9522 35.1512 29.3452 35.6907 29.7367L33.3413 32.9741C32.7907 32.5744 32.2437 32.1731 31.7005 31.7702L34.0837 28.5576ZM39.7781 32.6243C40.3223 32.9987 40.8699 33.3715 41.4208 33.7426L39.1855 37.0598C38.6241 36.6815 38.0659 36.3015 37.5111 35.9198L39.7781 32.6243ZM45.6125 36.4957C46.1691 36.8521 46.7287 37.2069 47.2912 37.5599L45.1646 40.9478C44.5921 40.5884 44.0224 40.2273 43.4556 39.8644L45.6125 36.4957ZM51.5519 40.1693C52.1269 40.5129 52.7045 40.8547 53.2847 41.1947L51.2624 44.6458C50.6724 44.3001 50.0849 43.9524 49.5001 43.6029L51.5519 40.1693ZM57.6102 43.6692C58.1928 43.9946 58.7778 44.3182 59.365 44.6399L57.4431 48.1479C56.8464 47.821 56.2519 47.4922 55.6598 47.1615L57.6102 43.6692ZM63.7747 46.9988C64.3647 47.3069 64.9568 47.6132 65.5508 47.9176L63.7269 51.4775C63.1236 51.1684 62.5223 50.8574 61.923 50.5444L63.7747 46.9988ZM70.0332 50.1596C70.6307 50.4513 71.2299 50.741 71.8307 51.0288L70.1031 54.6364C69.4932 54.3444 68.8849 54.0502 68.2783 53.7541L70.0332 50.1596ZM76.3674 53.1489C76.9747 53.4258 77.5835 53.7007 78.1937 53.9734L76.5614 57.6252C75.9422 57.3484 75.3243 57.0695 74.708 56.7885L76.3674 53.1489ZM82.7782 55.9718C83.3927 56.2329 84.0084 56.4919 84.6254 56.7487L83.0882 60.4415C82.4622 60.181 81.8374 59.9182 81.2138 59.6532L82.7782 55.9718ZM89.264 58.6297C89.8846 58.8747 90.5062 59.1175 91.1287 59.358L89.6872 63.0892C89.0555 62.8452 88.4247 62.5988 87.795 62.3502L89.264 58.6297ZM95.8151 61.1191C96.4423 61.3482 97.0702 61.575 97.6989 61.7993L96.3543 65.5666C95.7163 65.3389 95.0791 65.1088 94.4426 64.8763L95.8151 61.1191ZM102.426 63.437C103.059 63.6498 103.693 63.8601 104.327 64.0679L103.081 67.869C102.437 67.6581 101.794 67.4446 101.152 67.2287L102.426 63.437ZM109.099 65.5817C109.736 65.7772 110.374 65.9701 111.011 66.1603L109.868 69.9933C109.22 69.8001 108.573 69.6043 107.926 69.4058L109.099 65.5817ZM115.825 67.5456C116.468 67.7239 117.111 67.8995 117.755 68.0723L116.717 71.9353C116.063 71.7597 115.41 71.5814 114.757 71.4003L115.825 67.5456ZM122.596 69.3206C123.245 69.4811 123.895 69.6387 124.544 69.7934L123.617 73.6845C122.957 73.5272 122.297 73.367 121.636 73.2039L122.596 69.3206ZM129.407 70.8981C130.062 71.0397 130.717 71.1782 131.372 71.3136L130.561 75.2306C129.895 75.0929 129.229 74.952 128.562 74.8079L129.407 70.8981ZM136.278 72.2719C136.93 72.3918 137.582 72.5084 138.233 72.6218L137.546 76.5625C136.883 76.4469 136.22 76.3282 135.555 76.2061L136.278 72.2719ZM143.181 73.4236C143.839 73.522 144.496 73.617 145.151 73.7086L144.598 77.6701C143.929 77.5768 143.26 77.4799 142.589 77.3795L143.181 73.4236ZM150.109 74.3368C150.772 74.4121 151.434 74.4837 152.094 74.5516L151.685 78.5306C151.01 78.4613 150.335 78.3881 149.658 78.3112L150.109 74.3368ZM157.052 74.9927C157.72 75.0427 158.387 75.0887 159.051 75.1307L158.799 79.1227C158.119 79.0798 157.437 79.0327 156.754 78.9816L157.052 74.9927ZM164.002 75.3689C164.674 75.3909 165.345 75.4086 166.012 75.4218L165.933 79.4211C165.248 79.4075 164.56 79.3893 163.871 79.3667L164.002 75.3689ZM170.977 75.438C171.642 75.4288 172.305 75.415 172.965 75.3965L173.077 79.3949C172.398 79.4139 171.716 79.4281 171.032 79.4376L170.977 75.438ZM177.935 75.1647C178.591 75.1215 179.244 75.0734 179.894 75.0203L180.219 79.007C179.548 79.0618 178.874 79.1115 178.197 79.1561L177.935 75.1647ZM184.85 74.51C185.501 74.4286 186.149 74.3418 186.794 74.2495L187.361 78.2092C186.692 78.3048 186.021 78.3948 185.345 78.4792L184.85 74.51ZM191.691 73.4284C192.336 73.3038 192.976 73.1734 193.611 73.0369L194.451 76.9479C193.788 77.0902 193.121 77.2261 192.45 77.3557L191.691 73.4284ZM198.416 71.8674C199.049 71.6944 199.676 71.515 200.297 71.329L201.444 75.1612C200.791 75.3563 200.134 75.5444 199.472 75.7256L198.416 71.8674ZM204.968 69.7698C205.581 69.5429 206.187 69.309 206.788 69.0678L208.278 72.7796C207.644 73.0345 207.004 73.2815 206.357 73.5208L204.968 69.7698ZM211.268 67.0776C211.852 66.7916 212.43 66.4979 213 66.1964L214.87 69.7325C214.262 70.0537 213.648 70.3662 213.027 70.6701L211.268 67.0776ZM217.217 63.7401C217.763 63.3909 218.3 63.0334 218.83 62.6675L221.103 65.9586C220.535 66.3513 219.958 66.7346 219.374 67.1086L217.217 63.7401ZM222.698 59.7261C223.194 59.3116 223.681 58.8883 224.159 58.4561L226.841 61.424C226.324 61.8906 225.799 62.3473 225.265 62.7941L222.698 59.7261ZM227.59 55.0377C228.023 54.5607 228.448 54.0745 228.863 53.5791L231.928 56.1493C231.478 56.6857 231.019 57.212 230.549 57.7282L227.59 55.0377ZM231.783 49.7212C231.966 49.4523 232.146 49.1812 232.325 48.9076L235.675 51.0923C235.482 51.3882 235.287 51.6817 235.089 51.9726L231.783 49.7212Z" fill="#66C63A"/>
</svg>
