<svg width="119" height="120" viewBox="0 0 119 120" fill="none" xmlns="http://www.w3.org/2000/svg">
<path d="M118 60C118 92.5927 91.8008 119 59.5 119C27.1992 119 1 92.5927 1 60C1 27.4073 27.1992 1 59.5 1C91.8008 1 118 27.4073 118 60Z" stroke="#7DBA21" stroke-width="2"/>
<path d="M80.6658 25.5833H37.3342C35.4958 25.5833 34 26.6304 34 27.9172V47.1666C34 47.4885 34.3733 47.7499 34.8333 47.7499H83.1666C83.6266 47.7499 83.9999 47.4885 83.9999 47.1666V27.9172C84 26.6304 82.5042 25.5833 80.6658 25.5833ZM82.3333 46.5833H35.6667V27.9172C35.6667 27.2732 36.415 26.7499 37.3342 26.7499H80.6658C81.585 26.7499 82.3333 27.2732 82.3333 27.9172V46.5833Z" fill="#7DBA21"/>
<path d="M83.1667 46.5833H34.8333C34.3733 46.5833 34 46.8446 34 47.1666V50.0826C34 51.3695 35.4958 52.4166 37.3342 52.4166H80.6658C82.5042 52.4166 84 51.3695 84 50.0826V47.1666C84 46.8446 83.6267 46.5833 83.1667 46.5833ZM82.3333 50.0827C82.3333 50.7267 81.585 51.2499 80.6658 51.2499H37.3342C36.415 51.2499 35.6667 50.7267 35.6667 50.0827V47.7499H82.3334V50.0827H82.3333Z" fill="#7DBA21"/>
<path d="M61.5 48.9167H56.5C56.04 48.9167 55.6667 49.1781 55.6667 49.5001C55.6667 49.822 56.04 50.0834 56.5 50.0834H61.5C61.96 50.0834 62.3333 49.822 62.3333 49.5001C62.3333 49.1781 61.96 48.9167 61.5 48.9167Z" fill="#7DBA21"/>
<path d="M79.8333 27.9167H38.1667C37.7067 27.9167 37.3334 28.1781 37.3334 28.5001V47.1667C37.3334 47.4887 37.7067 47.7501 38.1667 47.7501H79.8334C80.2934 47.7501 80.6667 47.4887 80.6667 47.1667V28.5001C80.6667 28.1781 80.2934 27.9167 79.8333 27.9167ZM79 46.5834H39V29.0834H79V46.5834Z" fill="#7DBA21"/>
<path d="M69.8333 55.9167H48.1667C46.7884 55.9167 45.6667 56.7019 45.6667 57.6667C45.6667 58.6316 46.7884 59.4167 48.1667 59.4167H69.8334C71.2117 59.4167 72.3334 58.6316 72.3334 57.6667C72.3334 56.7019 71.2116 55.9167 69.8333 55.9167ZM69.8333 58.2501H48.1667C47.7067 58.2501 47.3334 57.9882 47.3334 57.6667C47.3334 57.3453 47.7067 57.0834 48.1667 57.0834H69.8334C70.2934 57.0834 70.6667 57.3453 70.6667 57.6667C70.6667 57.9882 70.2934 58.2501 69.8333 58.2501Z" fill="#7DBA21"/>
<path d="M68.1667 55.9166C65.4017 55.9166 64 54.5429 64 51.8333C64 51.5113 63.6267 51.25 63.1667 51.25H54.8334C54.3734 51.25 54.0001 51.5113 54.0001 51.8333C54.0001 54.5429 52.5984 55.9166 49.8334 55.9166C49.3734 55.9166 49.0001 56.178 49.0001 56.4999C49.0001 56.8219 49.3734 57.0832 49.8334 57.0832H68.1667C68.6267 57.0832 69 56.8219 69 56.4999C69 56.178 68.6267 55.9166 68.1667 55.9166ZM53.8925 55.9166C54.9184 55.121 55.5225 53.9362 55.6441 52.4166H62.3566C62.4774 53.9362 63.0816 55.121 64.1083 55.9166H53.8925Z" fill="#7DBA21"/>
<path d="M73.82 42.7707L71.8084 41.3626L72.9275 40.5792C73.1351 40.4339 73.2184 40.2227 73.1467 40.0238C73.075 39.8249 72.8592 39.6674 72.5783 39.6079L64.245 37.8579C63.9509 37.7961 63.6334 37.8527 63.4167 38.0043C63.1992 38.156 63.1192 38.3788 63.2075 38.5842L65.7075 44.4175C65.7917 44.6146 66.0175 44.7657 66.3017 44.8159C66.585 44.8649 66.8875 44.8077 67.095 44.6625L68.2733 43.837L70.285 45.2458C70.4408 45.3554 70.6533 45.4167 70.8741 45.4167C71.0949 45.4167 71.3074 45.3554 71.4633 45.2458L73.8199 43.5955C74.1458 43.3675 74.1458 42.9988 73.82 42.7707ZM70.8741 44.0086L69.0425 42.7258C68.83 42.577 68.5517 42.5029 68.2733 42.5029C67.9941 42.5029 67.7158 42.5776 67.5042 42.7252L66.9025 43.1463L65.2483 39.2864L70.7625 40.4444L70.1175 40.8959C69.9399 41.0207 69.8425 41.1864 69.8425 41.3626C69.8425 41.5393 69.9408 41.7061 70.1191 41.8298L72.0524 43.1831L70.8741 44.0086Z" fill="#7DBA21"/>
<path d="M69 30.25H45.6667C45.2067 30.25 44.8334 30.5113 44.8334 30.8333V33.75C44.8334 34.072 45.2067 34.3333 45.6667 34.3333H69C69.46 34.3333 69.8333 34.072 69.8333 33.75V30.8333C69.8333 30.5113 69.46 30.25 69 30.25ZM68.1667 33.1667H46.5V31.4167H68.1667V33.1667Z" fill="#7DBA21"/>
<path d="M55.6667 36.6667H49C48.54 36.6667 48.1667 36.9281 48.1667 37.2501V39.5834C48.1667 39.9053 48.54 40.1667 49 40.1667H55.6667C56.1267 40.1667 56.5 39.9053 56.5 39.5834V37.2501C56.5 36.9281 56.1267 36.6667 55.6667 36.6667ZM54.8333 39.0001H49.8333V37.8334H54.8333V39.0001Z" fill="#7DBA21"/>
<path d="M69 30.25H45.6667C45.2067 30.25 44.8334 30.5113 44.8334 30.8333V41.9166C44.8334 42.2386 45.2067 42.4999 45.6667 42.4999H65.5051C65.7692 42.4999 66.0167 42.413 66.1734 42.2648C66.331 42.1167 66.3793 41.9254 66.3034 41.7486L65.2484 39.2864L68.7609 40.0243C69.0135 40.0774 69.2868 40.0436 69.4976 39.9333C69.7092 39.8237 69.8334 39.6498 69.8334 39.4655V30.8333C69.8333 30.5113 69.46 30.25 69 30.25ZM68.1667 38.6815L64.2441 37.8579C63.95 37.796 63.6325 37.8526 63.4158 38.0043C63.1983 38.1565 63.1184 38.3788 63.2066 38.5847L64.385 41.3334H46.5V31.4167H68.1667V38.6815Z" fill="#7DBA21"/>
<path d="M8.602 83C8.602 82.6267 8.63 82.2767 8.686 81.95C8.75133 81.6233 8.868 81.3107 9.036 81.012C9.204 80.7133 9.43267 80.4287 9.722 80.158C10.0207 79.8873 10.408 79.6167 10.884 79.346C11.164 79.1967 11.4487 79.052 11.738 78.912C12.0273 78.7627 12.2887 78.6087 12.522 78.45C12.7647 78.282 12.9607 78.1047 13.11 77.918C13.2687 77.7313 13.348 77.512 13.348 77.26C13.348 77.1013 13.3107 76.9427 13.236 76.784C13.1613 76.6253 13.054 76.4853 12.914 76.364C12.774 76.2427 12.5967 76.1447 12.382 76.07C12.1767 75.9953 11.9387 75.958 11.668 75.958C11.388 75.958 11.1313 76 10.898 76.084C10.674 76.1587 10.4733 76.2567 10.296 76.378C10.1187 76.49 9.96467 76.6113 9.834 76.742C9.70333 76.8727 9.596 76.9893 9.512 77.092L8.714 76.196C8.78867 76.112 8.91467 76 9.092 75.86C9.26933 75.7107 9.49333 75.5613 9.764 75.412C10.0347 75.2627 10.3473 75.1367 10.702 75.034C11.0567 74.922 11.4533 74.866 11.892 74.866C12.3213 74.866 12.7087 74.9267 13.054 75.048C13.3993 75.16 13.6887 75.3187 13.922 75.524C14.1647 75.7293 14.3513 75.972 14.482 76.252C14.6127 76.5227 14.678 76.812 14.678 77.12C14.678 77.484 14.5987 77.8013 14.44 78.072C14.2813 78.3427 14.0853 78.5807 13.852 78.786C13.628 78.9913 13.3853 79.1687 13.124 79.318C12.8627 79.458 12.6293 79.5793 12.424 79.682C12.2187 79.7847 11.9853 79.9107 11.724 80.06C11.472 80.2 11.2293 80.3633 10.996 80.55C10.7627 80.7273 10.5573 80.928 10.38 81.152C10.212 81.376 10.1047 81.6187 10.058 81.88H14.832V83H8.602ZM16.3882 83V81.432H17.4242V83H16.3882ZM23.0533 83V73.06H27.1973C27.6359 73.06 28.0373 73.1533 28.4013 73.34C28.7746 73.5173 29.0919 73.76 29.3533 74.068C29.6239 74.3667 29.8339 74.7073 29.9833 75.09C30.1326 75.4633 30.2073 75.846 30.2073 76.238C30.2073 76.6487 30.1373 77.0453 29.9973 77.428C29.8573 77.8107 29.6566 78.1513 29.3953 78.45C29.1433 78.7487 28.8353 78.9867 28.4713 79.164C28.1166 79.3413 27.7199 79.43 27.2813 79.43H24.3133V83H23.0533ZM24.3133 78.31H27.2113C27.4726 78.31 27.7059 78.2587 27.9113 78.156C28.1259 78.044 28.3079 77.8947 28.4573 77.708C28.6066 77.512 28.7233 77.288 28.8073 77.036C28.8913 76.784 28.9333 76.518 28.9333 76.238C28.9333 75.9487 28.8819 75.678 28.7793 75.426C28.6859 75.174 28.5553 74.9547 28.3873 74.768C28.2286 74.5813 28.0373 74.4367 27.8133 74.334C27.5986 74.2313 27.3699 74.18 27.1273 74.18H24.3133V78.31ZM34.6352 83.14C34.0846 83.14 33.5806 83.0373 33.1232 82.832C32.6752 82.6267 32.2879 82.3513 31.9612 82.006C31.6439 81.6607 31.3966 81.2593 31.2192 80.802C31.0419 80.3447 30.9532 79.864 30.9532 79.36C30.9532 78.8467 31.0419 78.3613 31.2192 77.904C31.4059 77.4467 31.6579 77.0453 31.9752 76.7C32.3019 76.3547 32.6892 76.0793 33.1372 75.874C33.5946 75.6687 34.0939 75.566 34.6352 75.566C35.1766 75.566 35.6759 75.6687 36.1332 75.874C36.5906 76.0793 36.9779 76.3547 37.2952 76.7C37.6219 77.0453 37.8739 77.4467 38.0512 77.904C38.2379 78.3613 38.3312 78.8467 38.3312 79.36C38.3312 79.864 38.2426 80.3447 38.0652 80.802C37.8879 81.2593 37.6359 81.6607 37.3092 82.006C36.9826 82.3513 36.5906 82.6267 36.1332 82.832C35.6852 83.0373 35.1859 83.14 34.6352 83.14ZM32.2132 79.374C32.2132 79.7567 32.2739 80.1113 32.3952 80.438C32.5259 80.7647 32.6986 81.0493 32.9132 81.292C33.1372 81.5347 33.3939 81.726 33.6832 81.866C33.9819 82.006 34.2992 82.076 34.6352 82.076C34.9712 82.076 35.2839 82.006 35.5732 81.866C35.8719 81.726 36.1332 81.5347 36.3572 81.292C36.5812 81.04 36.7539 80.7507 36.8752 80.424C37.0059 80.088 37.0712 79.7287 37.0712 79.346C37.0712 78.9727 37.0059 78.6227 36.8752 78.296C36.7539 77.96 36.5812 77.6707 36.3572 77.428C36.1332 77.176 35.8719 76.98 35.5732 76.84C35.2839 76.7 34.9712 76.63 34.6352 76.63C34.2992 76.63 33.9819 76.7047 33.6832 76.854C33.3939 76.994 33.1372 77.19 32.9132 77.442C32.6986 77.6847 32.5259 77.974 32.3952 78.31C32.2739 78.6367 32.2132 78.9913 32.2132 79.374ZM42.3861 83.14C41.7981 83.14 41.2194 83.0513 40.6501 82.874C40.0807 82.6873 39.5907 82.4213 39.1801 82.076L39.7121 81.25C40.1414 81.5767 40.5707 81.824 41.0001 81.992C41.4294 82.1507 41.8821 82.23 42.3581 82.23C42.8901 82.23 43.3101 82.1273 43.6181 81.922C43.9354 81.7073 44.0941 81.4087 44.0941 81.026C44.0941 80.8487 44.0521 80.6993 43.9681 80.578C43.8841 80.4473 43.7581 80.3353 43.5901 80.242C43.4221 80.1487 43.2074 80.0647 42.9461 79.99C42.6847 79.9153 42.3814 79.836 42.0361 79.752C41.5974 79.64 41.2194 79.5327 40.9021 79.43C40.5847 79.3273 40.3234 79.206 40.1181 79.066C39.9127 78.926 39.7634 78.758 39.6701 78.562C39.5767 78.366 39.5301 78.1233 39.5301 77.834C39.5301 77.47 39.6001 77.148 39.7401 76.868C39.8894 76.5787 40.0901 76.3407 40.3421 76.154C40.5941 75.958 40.8881 75.8133 41.2241 75.72C41.5694 75.6173 41.9381 75.566 42.3301 75.566C42.8807 75.566 43.3941 75.6547 43.8701 75.832C44.3461 76.0093 44.7474 76.2427 45.0741 76.532L44.5141 77.274C44.2061 77.0033 43.8607 76.8027 43.4781 76.672C43.0954 76.532 42.7034 76.462 42.3021 76.462C41.8541 76.462 41.4714 76.56 41.1541 76.756C40.8461 76.9427 40.6921 77.246 40.6921 77.666C40.6921 77.834 40.7201 77.974 40.7761 78.086C40.8414 78.198 40.9441 78.296 41.0841 78.38C41.2241 78.464 41.4014 78.5387 41.6161 78.604C41.8401 78.6693 42.1061 78.7393 42.4141 78.814C42.8994 78.926 43.3194 79.0427 43.6741 79.164C44.0381 79.276 44.3367 79.4113 44.5701 79.57C44.8127 79.7287 44.9901 79.9153 45.1021 80.13C45.2234 80.3447 45.2841 80.606 45.2841 80.914C45.2841 81.5953 45.0227 82.1367 44.5001 82.538C43.9774 82.9393 43.2727 83.14 42.3861 83.14ZM50.522 82.636C50.4474 82.6733 50.3494 82.72 50.228 82.776C50.1067 82.8227 49.9667 82.874 49.808 82.93C49.6587 82.9767 49.4907 83.014 49.304 83.042C49.1267 83.0793 48.94 83.098 48.744 83.098C48.296 83.098 47.9087 82.9767 47.582 82.734C47.2554 82.482 47.092 82.0947 47.092 81.572V76.658H46.098V75.692H47.092V73.256H48.324V75.692H49.962V76.658H48.324V81.194C48.3427 81.4647 48.4314 81.6607 48.59 81.782C48.7487 81.9033 48.9354 81.964 49.15 81.964C49.3927 81.964 49.612 81.9267 49.808 81.852C50.0134 81.768 50.1534 81.7027 50.228 81.656L50.522 82.636ZM59.1389 83.14C58.5323 83.14 57.9956 82.9907 57.5289 82.692C57.0716 82.3933 56.7076 82.0153 56.4369 81.558V85.982H55.2049V75.692H56.2969V77.064C56.5863 76.616 56.9596 76.2567 57.4169 75.986C57.8836 75.706 58.3969 75.566 58.9569 75.566C59.4609 75.566 59.9229 75.6687 60.3429 75.874C60.7629 76.0793 61.1269 76.3593 61.4349 76.714C61.7429 77.0593 61.9809 77.4607 62.1489 77.918C62.3263 78.3753 62.4149 78.8513 62.4149 79.346C62.4149 79.8687 62.3356 80.3633 62.1769 80.83C62.0183 81.2873 61.7943 81.6887 61.5049 82.034C61.2156 82.37 60.8703 82.6407 60.4689 82.846C60.0676 83.042 59.6243 83.14 59.1389 83.14ZM58.7609 82.076C59.1249 82.076 59.4516 82.0013 59.7409 81.852C60.0396 81.6933 60.2916 81.488 60.4969 81.236C60.7116 80.9747 60.8749 80.6807 60.9869 80.354C61.0989 80.0273 61.1549 79.6913 61.1549 79.346C61.1549 78.982 61.0896 78.6367 60.9589 78.31C60.8283 77.974 60.6509 77.6847 60.4269 77.442C60.2029 77.19 59.9369 76.994 59.6289 76.854C59.3303 76.7047 59.0036 76.63 58.6489 76.63C58.4249 76.63 58.1916 76.6767 57.9489 76.77C57.7156 76.854 57.4916 76.9707 57.2769 77.12C57.0716 77.26 56.8896 77.4327 56.7309 77.638C56.5816 77.834 56.4836 78.044 56.4369 78.268V80.354C56.5396 80.5967 56.6703 80.8253 56.8289 81.04C56.9876 81.2453 57.1696 81.4273 57.3749 81.586C57.5803 81.7353 57.7996 81.8567 58.0329 81.95C58.2663 82.034 58.5089 82.076 58.7609 82.076ZM67.7916 76.77C67.1756 76.7887 66.6296 76.9473 66.1536 77.246C65.6869 77.5447 65.3556 77.96 65.1596 78.492V83H63.9276V75.692H65.0756V77.386C65.3276 76.882 65.6589 76.476 66.0696 76.168C66.4803 75.8507 66.9189 75.6733 67.3856 75.636C67.4789 75.636 67.5583 75.636 67.6236 75.636C67.6889 75.636 67.7449 75.6407 67.7916 75.65V76.77ZM72.0415 83.14C71.4908 83.14 70.9868 83.0373 70.5295 82.832C70.0815 82.6267 69.6941 82.3513 69.3675 82.006C69.0501 81.6607 68.8028 81.2593 68.6255 80.802C68.4481 80.3447 68.3595 79.864 68.3595 79.36C68.3595 78.8467 68.4481 78.3613 68.6255 77.904C68.8121 77.4467 69.0641 77.0453 69.3815 76.7C69.7081 76.3547 70.0955 76.0793 70.5435 75.874C71.0008 75.6687 71.5001 75.566 72.0415 75.566C72.5828 75.566 73.0821 75.6687 73.5395 75.874C73.9968 76.0793 74.3841 76.3547 74.7015 76.7C75.0281 77.0453 75.2801 77.4467 75.4575 77.904C75.6441 78.3613 75.7375 78.8467 75.7375 79.36C75.7375 79.864 75.6488 80.3447 75.4715 80.802C75.2941 81.2593 75.0421 81.6607 74.7155 82.006C74.3888 82.3513 73.9968 82.6267 73.5395 82.832C73.0915 83.0373 72.5921 83.14 72.0415 83.14ZM69.6195 79.374C69.6195 79.7567 69.6801 80.1113 69.8015 80.438C69.9321 80.7647 70.1048 81.0493 70.3195 81.292C70.5435 81.5347 70.8001 81.726 71.0895 81.866C71.3881 82.006 71.7055 82.076 72.0415 82.076C72.3775 82.076 72.6901 82.006 72.9795 81.866C73.2781 81.726 73.5395 81.5347 73.7635 81.292C73.9875 81.04 74.1601 80.7507 74.2815 80.424C74.4121 80.088 74.4775 79.7287 74.4775 79.346C74.4775 78.9727 74.4121 78.6227 74.2815 78.296C74.1601 77.96 73.9875 77.6707 73.7635 77.428C73.5395 77.176 73.2781 76.98 72.9795 76.84C72.6901 76.7 72.3775 76.63 72.0415 76.63C71.7055 76.63 71.3881 76.7047 71.0895 76.854C70.8001 76.994 70.5435 77.19 70.3195 77.442C70.1048 77.6847 69.9321 77.974 69.8015 78.31C69.6801 78.6367 69.6195 78.9913 69.6195 79.374ZM81.1643 83.14C80.5577 83.14 80.021 82.9907 79.5543 82.692C79.097 82.3933 78.733 82.0153 78.4623 81.558V85.982H77.2303V75.692H78.3223V77.064C78.6117 76.616 78.985 76.2567 79.4423 75.986C79.909 75.706 80.4223 75.566 80.9823 75.566C81.4863 75.566 81.9483 75.6687 82.3683 75.874C82.7883 76.0793 83.1523 76.3593 83.4603 76.714C83.7683 77.0593 84.0063 77.4607 84.1743 77.918C84.3517 78.3753 84.4403 78.8513 84.4403 79.346C84.4403 79.8687 84.361 80.3633 84.2023 80.83C84.0437 81.2873 83.8197 81.6887 83.5303 82.034C83.241 82.37 82.8957 82.6407 82.4943 82.846C82.093 83.042 81.6497 83.14 81.1643 83.14ZM80.7863 82.076C81.1503 82.076 81.477 82.0013 81.7663 81.852C82.065 81.6933 82.317 81.488 82.5223 81.236C82.737 80.9747 82.9003 80.6807 83.0123 80.354C83.1243 80.0273 83.1803 79.6913 83.1803 79.346C83.1803 78.982 83.115 78.6367 82.9843 78.31C82.8537 77.974 82.6763 77.6847 82.4523 77.442C82.2283 77.19 81.9623 76.994 81.6543 76.854C81.3557 76.7047 81.029 76.63 80.6743 76.63C80.4503 76.63 80.217 76.6767 79.9743 76.77C79.741 76.854 79.517 76.9707 79.3023 77.12C79.097 77.26 78.915 77.4327 78.7563 77.638C78.607 77.834 78.509 78.044 78.4623 78.268V80.354C78.565 80.5967 78.6957 80.8253 78.8543 81.04C79.013 81.2453 79.195 81.4273 79.4003 81.586C79.6057 81.7353 79.825 81.8567 80.0583 81.95C80.2917 82.034 80.5343 82.076 80.7863 82.076ZM89.187 83.14C88.6363 83.14 88.1323 83.042 87.675 82.846C87.2177 82.6407 86.8257 82.3653 86.499 82.02C86.1723 81.6747 85.9157 81.2733 85.729 80.816C85.5517 80.3493 85.463 79.8593 85.463 79.346C85.463 78.8327 85.5517 78.3473 85.729 77.89C85.9157 77.4327 86.1723 77.0313 86.499 76.686C86.835 76.3407 87.2317 76.07 87.689 75.874C88.1463 75.6687 88.6503 75.566 89.201 75.566C89.7517 75.566 90.251 75.6687 90.699 75.874C91.1563 76.0793 91.5437 76.3547 91.861 76.7C92.1783 77.036 92.421 77.4327 92.589 77.89C92.7663 78.338 92.855 78.8047 92.855 79.29C92.855 79.3927 92.8503 79.486 92.841 79.57C92.841 79.654 92.8363 79.7193 92.827 79.766H86.765C86.793 80.13 86.877 80.4613 87.017 80.76C87.157 81.0587 87.339 81.3153 87.563 81.53C87.787 81.7447 88.039 81.9127 88.319 82.034C88.6083 82.1553 88.9117 82.216 89.229 82.216C89.453 82.216 89.6723 82.188 89.887 82.132C90.1017 82.0667 90.3023 81.9827 90.489 81.88C90.6757 81.7773 90.839 81.6513 90.979 81.502C91.1283 81.3527 91.2403 81.1847 91.315 80.998L92.379 81.292C92.2577 81.5627 92.0897 81.81 91.875 82.034C91.6697 82.258 91.427 82.454 91.147 82.622C90.8763 82.7807 90.573 82.9067 90.237 83C89.901 83.0933 89.551 83.14 89.187 83.14ZM91.693 78.856C91.665 78.5107 91.5763 78.1933 91.427 77.904C91.287 77.6053 91.105 77.3533 90.881 77.148C90.6663 76.9427 90.4143 76.784 90.125 76.672C89.8357 76.5507 89.5277 76.49 89.201 76.49C88.8743 76.49 88.5663 76.5507 88.277 76.672C87.9877 76.784 87.731 76.9473 87.507 77.162C87.2923 77.3673 87.115 77.6147 86.975 77.904C86.8443 78.1933 86.765 78.5107 86.737 78.856H91.693ZM98.0885 76.77C97.4725 76.7887 96.9265 76.9473 96.4505 77.246C95.9838 77.5447 95.6525 77.96 95.4565 78.492V83H94.2245V75.692H95.3725V77.386C95.6245 76.882 95.9558 76.476 96.3665 76.168C96.7771 75.8507 97.2158 75.6733 97.6825 75.636C97.7758 75.636 97.8551 75.636 97.9205 75.636C97.9858 75.636 98.0418 75.6407 98.0885 75.65V76.77ZM103.09 82.636C103.016 82.6733 102.918 82.72 102.796 82.776C102.675 82.8227 102.535 82.874 102.376 82.93C102.227 82.9767 102.059 83.014 101.872 83.042C101.695 83.0793 101.508 83.098 101.312 83.098C100.864 83.098 100.477 82.9767 100.15 82.734C99.8237 82.482 99.6604 82.0947 99.6604 81.572V76.658H98.6664V75.692H99.6604V73.256H100.892V75.692H102.53V76.658H100.892V81.194C100.911 81.4647 101 81.6607 101.158 81.782C101.317 81.9033 101.504 81.964 101.718 81.964C101.961 81.964 102.18 81.9267 102.376 81.852C102.582 81.768 102.722 81.7027 102.796 81.656L103.09 82.636ZM104.568 84.988C104.69 85.0067 104.811 85.0207 104.932 85.03C105.054 85.0393 105.147 85.044 105.212 85.044C105.324 85.044 105.422 85.016 105.506 84.96C105.6 84.9133 105.688 84.8153 105.772 84.666C105.866 84.5167 105.968 84.3067 106.08 84.036C106.192 83.7747 106.332 83.4293 106.5 83L103.406 75.692H104.68L107.172 81.894L109.44 75.692H110.616L107.06 84.918C106.93 85.2447 106.71 85.5293 106.402 85.772C106.104 86.024 105.688 86.15 105.156 86.15C105.072 86.15 104.984 86.1453 104.89 86.136C104.806 86.1267 104.699 86.108 104.568 86.08V84.988Z" fill="#7DBA21"/>
</svg>
