<svg width="21" height="21" viewBox="0 0 21 21" fill="none" xmlns="http://www.w3.org/2000/svg">
<path d="M20.6475 9.49008L17.4649 6.07221V2.12399C17.4649 1.4101 16.9262 0.831542 16.2604 0.831542C15.5962 0.831542 15.0575 1.4101 15.0575 2.12399V3.487L12.6878 0.942027C11.5162 -0.315503 9.4791 -0.313272 8.31015 0.944303L0.352326 9.49008C-0.117442 9.99557 -0.117442 10.8135 0.352326 11.3182C0.822306 11.8235 1.58541 11.8235 2.05522 11.3182L10.0123 2.77219C10.2715 2.49527 10.7284 2.49528 10.9862 2.77137L18.9447 11.3182C19.1806 11.5709 19.4883 11.6966 19.7959 11.6966C20.1041 11.6966 20.4123 11.5708 20.6476 11.3182C21.1175 10.8135 21.1175 9.99561 20.6475 9.49008Z" fill="#00E676"/>
<path d="M10.918 5.2256C10.6868 4.97745 10.3125 4.97745 10.082 5.2256L3.08225 12.7404C2.97174 12.859 2.90909 13.021 2.90909 13.19V18.6711C2.90909 19.9572 3.88016 21 5.07777 21H8.54334V15.2364H12.4559V21H15.9215C17.1191 21 18.0902 19.9572 18.0902 18.6711V13.19C18.0902 13.021 18.0281 12.859 17.917 12.7404L10.918 5.2256Z" fill="#00E676"/>
</svg>
