<svg width="661" height="218" viewBox="0 0 661 218" fill="none" xmlns="http://www.w3.org/2000/svg">
<path d="M656 79C656 111.593 629.801 138 597.5 138C565.199 138 539 111.593 539 79C539 46.4073 565.199 20 597.5 20C629.801 20 656 46.4073 656 79Z" stroke="#7DBA21" stroke-width="2"/>
<path d="M610.754 67.3304L605.347 61.3105C607.267 59.589 608.426 57.3275 608.619 54.9286H616.991V55.73C615.053 56.0783 613.661 57.5693 613.659 59.2998C613.659 61.3115 615.525 62.9421 617.825 62.9417C620.125 62.9413 621.989 61.3101 621.989 59.2983C621.988 57.5676 620.596 56.0761 618.657 55.73V54.2001C618.657 53.7977 618.284 53.4715 617.824 53.4715H608.619C608.456 51.453 607.606 49.5233 606.178 47.931L607.34 46.9147H617.144C617.604 48.0528 619.032 48.6492 620.333 48.2468C621.634 47.8444 622.316 46.5957 621.856 45.4577C621.396 44.3197 619.968 43.7232 618.667 44.1256C617.956 44.3456 617.396 44.8352 617.144 45.4576H606.995C606.774 45.4576 606.563 45.5345 606.406 45.6711L605.061 46.8476C600.432 42.9485 593.066 43.0697 588.607 47.1184C586.713 48.8392 585.57 51.0881 585.381 53.4714H578.384L575.661 48.1146C576.878 47.5543 577.345 46.2371 576.705 45.1725C576.064 44.1078 574.558 43.699 573.341 44.2593C572.124 44.8195 571.656 46.1367 572.297 47.2013C572.633 47.7608 573.231 48.1649 573.936 48.3083L577.08 54.4965C577.214 54.7594 577.512 54.9287 577.841 54.9285H585.381C585.572 57.2999 586.709 59.5372 588.593 61.2507L581.561 67.4009C577.014 66.8051 572.776 69.5458 572.095 73.5226C571.414 77.4994 574.547 81.2062 579.094 81.8021C579.231 81.8201 579.369 81.835 579.507 81.847V85.5268C579.507 85.9291 579.88 86.2553 580.34 86.2553H587.99C588.45 87.3934 589.878 87.9898 591.179 87.5873C592.48 87.1849 593.162 85.9362 592.702 84.7982C592.242 83.6603 590.814 83.0638 589.513 83.4662C588.802 83.6862 588.242 84.1759 587.99 84.7982H581.173V81.847C585.748 81.4481 589.087 77.881 588.631 73.8797C588.322 71.1721 586.313 68.8409 583.422 67.8359L589.836 62.2262C594.013 65.1026 599.892 65.1233 604.096 62.2764L608.717 67.4213C602.336 68.1999 597.885 73.3552 598.775 78.9361C599.665 84.5171 605.559 88.4103 611.94 87.6318C618.321 86.8532 622.773 81.6979 621.882 76.117C621.101 71.2149 616.409 67.5106 610.754 67.3304ZM620.323 59.2998C620.323 60.5068 619.204 61.4854 617.824 61.4854C616.444 61.4854 615.325 60.5068 615.325 59.2998C615.325 58.0927 616.444 57.1142 617.824 57.1142C619.204 57.1142 620.323 58.0927 620.323 59.2998ZM619.49 45.4577C619.95 45.4577 620.323 45.7839 620.323 46.1862C620.323 46.5885 619.95 46.9147 619.49 46.9147C619.03 46.9147 618.657 46.5885 618.657 46.1862C618.657 45.7839 619.03 45.4577 619.49 45.4577ZM574.509 46.9147C574.049 46.9147 573.676 46.5885 573.676 46.1862C573.676 45.7839 574.049 45.4577 574.509 45.4577C574.969 45.4577 575.342 45.7839 575.342 46.1862C575.342 46.5885 574.969 46.9147 574.509 46.9147ZM590.336 84.7983C590.796 84.7983 591.169 85.1245 591.169 85.5269C591.169 85.9292 590.796 86.2554 590.336 86.2554C589.876 86.2554 589.503 85.9292 589.503 85.5269C589.503 85.1245 589.876 84.7983 590.336 84.7983ZM583.672 79.6389C581.614 80.6903 579.067 80.6903 577.008 79.6389V78.2416C577.008 76.6321 578.5 75.3274 580.34 75.3274C582.18 75.3274 583.672 76.6321 583.672 78.2416V79.6389ZM578.674 72.4133C578.674 71.6086 579.42 70.9563 580.34 70.9563C581.26 70.9563 582.006 71.6086 582.006 72.4133C582.006 73.2181 581.26 73.8704 580.34 73.8704C579.42 73.8704 578.674 73.218 578.674 72.4133ZM585.338 70.7311C586.415 71.7991 587.008 73.1749 587.004 74.5989C587.004 76.0146 586.411 77.3813 585.338 78.4412V78.2416C585.337 76.6488 584.345 75.1826 582.75 74.4146C584.021 73.2504 583.971 71.4058 582.64 70.2945C581.309 69.1833 579.2 69.2262 577.93 70.3904C576.701 71.5164 576.701 73.2885 577.93 74.4145C576.334 75.1826 575.343 76.6488 575.342 78.2415V78.4411C572.908 76.0269 573.172 72.3439 575.933 70.2149C578.693 68.0858 582.904 68.317 585.338 70.7311ZM602.83 61.2843C599.353 63.4923 594.646 63.4923 591.169 61.2843V59.5183C591.169 58.1906 592.4 57.1142 593.918 57.1142H595.767L594.558 59.7573C594.434 60.028 594.507 60.3374 594.743 60.5434L596.409 62.0004C596.734 62.2848 597.262 62.2848 597.587 62.0004L599.253 60.5434C599.489 60.3373 599.562 60.028 599.438 59.7573L598.23 57.1142H600.082C601.6 57.1142 602.83 58.1906 602.83 59.5183V61.2843V61.2843ZM597.119 49.4537C597.088 49.4992 597.062 49.5475 597.043 49.5978C596.622 50.703 594.346 51.1219 592.881 51.2436C593.104 48.8021 594.418 47.6432 597 47.6432C599.364 47.6432 600.665 48.6209 601.037 50.6608L598.262 49.2037C597.867 48.9968 597.355 49.1087 597.119 49.4537ZM598.148 50.8444L601.125 52.4071C600.791 54.1906 598.278 55.6571 597 55.6571C595.142 55.3804 593.596 54.2536 592.951 52.7051C594.377 52.6024 596.951 52.2243 598.148 50.8444ZM597.688 59.8527L597 60.4552L596.312 59.8527L597 58.3468L597.688 59.8527ZM600.634 55.6906C601.933 54.7963 602.733 53.4581 602.83 52.0145C602.83 47.1974 599.659 46.1862 597 46.1862C594.34 46.1862 591.169 47.1974 591.169 52.0145C591.266 53.459 592.065 54.798 593.365 55.6928C591.157 55.9308 589.5 57.5725 589.503 59.5183V59.9613C585.851 56.3401 586.248 50.8156 590.388 47.622C594.528 44.4284 600.845 44.775 604.496 48.3961C607.828 51.7005 607.828 56.6568 604.496 59.9612V59.5182C604.501 57.5717 602.843 55.9286 600.634 55.6906ZM616.158 84.5973C612.681 86.8053 607.974 86.8053 604.496 84.5973V82.8313C604.496 81.5036 605.727 80.4271 607.245 80.4271H609.094L607.886 83.0703C607.762 83.341 607.835 83.6503 608.071 83.8563L609.737 85.3134C610.062 85.5978 610.589 85.5978 610.914 85.3134L612.58 83.8563C612.816 83.6503 612.889 83.341 612.765 83.0703L611.557 80.4271H613.409C614.927 80.4271 616.158 81.5036 616.158 82.8313V84.5973V84.5973ZM611.476 74.1574V74.1567L614.453 75.7194C614.119 77.5036 611.606 78.9701 610.327 78.9701C608.469 78.6933 606.924 77.5666 606.278 76.0181C607.704 75.9154 610.279 75.5372 611.476 74.1574ZM606.208 74.5567C606.431 72.1153 607.745 70.9563 610.327 70.9563C612.691 70.9563 613.992 71.9339 614.365 73.9738L611.589 72.5168C611.195 72.3098 610.683 72.4217 610.446 72.7667C610.415 72.8123 610.39 72.8605 610.37 72.9109C609.949 74.0161 607.673 74.435 606.208 74.5567ZM611.015 83.1657L610.327 83.7682L609.639 83.1657L610.327 81.6598L611.015 83.1657ZM617.824 83.2763V82.8312C617.828 80.8846 616.17 79.2416 613.961 79.0035C615.261 78.1091 616.06 76.771 616.158 75.3273C616.158 70.5103 612.987 69.4991 610.327 69.4991C607.667 69.4991 604.496 70.5103 604.496 75.3273C604.593 76.7718 605.393 78.1109 606.693 79.0057C604.485 79.2437 602.827 80.8854 602.83 82.8312V83.2742C599.187 79.6502 599.593 74.1294 603.737 70.9432C607.88 67.7571 614.193 68.1121 617.835 71.7361C619.441 73.3328 620.325 75.3867 620.323 77.5128C620.322 79.6365 619.433 81.6865 617.824 83.2763Z" fill="#7DBA21"/>
<path d="M550.654 98.932C551.209 99.0273 551.646 99.283 551.967 99.699C552.296 100.115 552.461 100.631 552.461 101.246C552.461 101.645 552.387 102.009 552.24 102.338C552.093 102.667 551.88 102.949 551.603 103.183C551.334 103.417 551.009 103.595 550.628 103.716C550.247 103.846 549.822 103.911 549.354 103.911C548.695 103.911 548.115 103.785 547.612 103.534C547.118 103.291 546.732 102.945 546.455 102.494L547.222 101.727C547.421 102.082 547.69 102.36 548.028 102.559C548.366 102.767 548.808 102.871 549.354 102.871C549.952 102.871 550.42 102.737 550.758 102.468C551.105 102.199 551.278 101.792 551.278 101.246C551.278 100.7 551.092 100.267 550.719 99.946C550.355 99.6167 549.822 99.452 549.12 99.452H548.782V98.49H549.146C549.77 98.49 550.247 98.3427 550.576 98.048C550.914 97.7447 551.083 97.3633 551.083 96.904C551.083 96.4447 550.923 96.1023 550.602 95.877C550.281 95.6517 549.878 95.539 549.393 95.539C548.916 95.539 548.496 95.643 548.132 95.851C547.777 96.0503 547.499 96.332 547.3 96.696L546.598 95.968C546.711 95.7513 546.862 95.5563 547.053 95.383C547.252 95.201 547.478 95.045 547.729 94.915C547.989 94.785 548.266 94.6853 548.561 94.616C548.864 94.5467 549.181 94.512 549.51 94.512C549.917 94.512 550.29 94.5683 550.628 94.681C550.975 94.7937 551.269 94.9497 551.512 95.149C551.763 95.3483 551.954 95.591 552.084 95.877C552.223 96.163 552.292 96.4793 552.292 96.826C552.292 97.086 552.253 97.333 552.175 97.567C552.106 97.801 551.997 98.0133 551.85 98.204C551.711 98.3947 551.538 98.555 551.33 98.685C551.131 98.8063 550.905 98.8887 550.654 98.932ZM553.853 102V100.544H554.815V102H553.853ZM566.555 100.752C565.74 101.627 564.804 102.065 563.747 102.065C563.131 102.065 562.559 101.931 562.031 101.662C561.511 101.393 561.06 101.042 560.679 100.609C560.297 100.167 559.994 99.6643 559.769 99.101C559.552 98.5377 559.444 97.957 559.444 97.359C559.444 96.735 559.552 96.1457 559.769 95.591C559.985 95.0277 560.284 94.5337 560.666 94.109C561.047 93.6757 561.502 93.3333 562.031 93.082C562.559 92.8307 563.131 92.705 563.747 92.705C564.639 92.705 565.372 92.8913 565.944 93.264C566.524 93.6367 566.966 94.122 567.27 94.72L566.373 95.344C566.095 94.8067 565.727 94.408 565.268 94.148C564.808 93.888 564.293 93.758 563.721 93.758C563.253 93.758 562.828 93.862 562.447 94.07C562.065 94.2693 561.74 94.538 561.472 94.876C561.203 95.2053 560.995 95.591 560.848 96.033C560.7 96.4663 560.627 96.917 560.627 97.385C560.627 97.879 560.709 98.347 560.874 98.789C561.038 99.2223 561.264 99.608 561.55 99.946C561.836 100.275 562.174 100.535 562.564 100.726C562.954 100.917 563.378 101.012 563.838 101.012C564.843 101.012 565.749 100.527 566.555 99.556V98.282H564.566V97.398H567.543V102H566.555V100.752ZM572.143 102.13C571.631 102.13 571.163 102.039 570.739 101.857C570.314 101.666 569.95 101.411 569.647 101.09C569.343 100.769 569.105 100.397 568.932 99.972C568.767 99.5387 568.685 99.0837 568.685 98.607C568.685 98.1303 568.767 97.6797 568.932 97.255C569.105 96.8303 569.343 96.4577 569.647 96.137C569.959 95.8163 570.327 95.565 570.752 95.383C571.176 95.1923 571.644 95.097 572.156 95.097C572.667 95.097 573.131 95.1923 573.547 95.383C573.971 95.5737 574.331 95.8293 574.626 96.15C574.92 96.462 575.146 96.8303 575.302 97.255C575.466 97.671 575.549 98.1043 575.549 98.555C575.549 98.6503 575.544 98.737 575.536 98.815C575.536 98.893 575.531 98.9537 575.523 98.997H569.894C569.92 99.335 569.998 99.6427 570.128 99.92C570.258 100.197 570.427 100.436 570.635 100.635C570.843 100.834 571.077 100.99 571.337 101.103C571.605 101.216 571.887 101.272 572.182 101.272C572.39 101.272 572.593 101.246 572.793 101.194C572.992 101.133 573.178 101.055 573.352 100.96C573.525 100.865 573.677 100.748 573.807 100.609C573.945 100.47 574.049 100.314 574.119 100.141L575.107 100.414C574.994 100.665 574.838 100.895 574.639 101.103C574.448 101.311 574.223 101.493 573.963 101.649C573.711 101.796 573.43 101.913 573.118 102C572.806 102.087 572.481 102.13 572.143 102.13ZM574.47 98.152C574.444 97.8313 574.361 97.5367 574.223 97.268C574.093 96.9907 573.924 96.7567 573.716 96.566C573.516 96.3753 573.282 96.228 573.014 96.124C572.745 96.0113 572.459 95.955 572.156 95.955C571.852 95.955 571.566 96.0113 571.298 96.124C571.029 96.228 570.791 96.3797 570.583 96.579C570.383 96.7697 570.219 96.9993 570.089 97.268C569.967 97.5367 569.894 97.8313 569.868 98.152H574.47ZM580.267 101.662C580.198 101.697 580.107 101.74 579.994 101.792C579.881 101.835 579.751 101.883 579.604 101.935C579.465 101.978 579.309 102.013 579.136 102.039C578.971 102.074 578.798 102.091 578.616 102.091C578.2 102.091 577.84 101.978 577.537 101.753C577.234 101.519 577.082 101.159 577.082 100.674V96.111H576.159V95.214H577.082V92.952H578.226V95.214H579.747V96.111H578.226V100.323C578.243 100.574 578.326 100.756 578.473 100.869C578.62 100.982 578.794 101.038 578.993 101.038C579.218 101.038 579.422 101.003 579.604 100.934C579.795 100.856 579.925 100.795 579.994 100.752L580.267 101.662ZM584.16 98.594C584.16 98.1173 584.243 97.6667 584.407 97.242C584.572 96.8173 584.806 96.449 585.109 96.137C585.413 95.8163 585.772 95.565 586.188 95.383C586.613 95.1923 587.085 95.097 587.605 95.097C588.281 95.097 588.862 95.2487 589.347 95.552C589.841 95.8467 590.214 96.2453 590.465 96.748L589.347 97.099C589.174 96.7783 588.931 96.5313 588.619 96.358C588.307 96.176 587.961 96.085 587.579 96.085C587.267 96.085 586.973 96.15 586.695 96.28C586.418 96.4013 586.18 96.5747 585.98 96.8C585.781 97.0253 585.621 97.2897 585.499 97.593C585.387 97.8963 585.33 98.23 585.33 98.594C585.33 98.9493 585.391 99.283 585.512 99.595C585.634 99.907 585.794 100.18 585.993 100.414C586.201 100.639 586.44 100.817 586.708 100.947C586.986 101.077 587.28 101.142 587.592 101.142C587.792 101.142 587.987 101.116 588.177 101.064C588.377 101.003 588.554 100.925 588.71 100.83C588.875 100.735 589.018 100.626 589.139 100.505C589.261 100.375 589.347 100.236 589.399 100.089L590.517 100.427C590.413 100.678 590.266 100.908 590.075 101.116C589.893 101.324 589.677 101.502 589.425 101.649C589.174 101.796 588.892 101.913 588.58 102C588.277 102.087 587.956 102.13 587.618 102.13C587.107 102.13 586.639 102.035 586.214 101.844C585.79 101.653 585.426 101.398 585.122 101.077C584.819 100.756 584.581 100.384 584.407 99.959C584.243 99.5257 584.16 99.0707 584.16 98.594ZM594.714 102.13C594.203 102.13 593.735 102.035 593.31 101.844C592.894 101.653 592.534 101.398 592.231 101.077C591.936 100.756 591.707 100.384 591.542 99.959C591.377 99.5343 591.295 99.088 591.295 98.62C591.295 98.1433 591.377 97.6927 591.542 97.268C591.715 96.8433 591.949 96.4707 592.244 96.15C592.547 95.8293 592.907 95.5737 593.323 95.383C593.748 95.1923 594.211 95.097 594.714 95.097C595.217 95.097 595.68 95.1923 596.105 95.383C596.53 95.5737 596.889 95.8293 597.184 96.15C597.487 96.4707 597.721 96.8433 597.886 97.268C598.059 97.6927 598.146 98.1433 598.146 98.62C598.146 99.088 598.064 99.5343 597.899 99.959C597.734 100.384 597.5 100.756 597.197 101.077C596.894 101.398 596.53 101.653 596.105 101.844C595.689 102.035 595.225 102.13 594.714 102.13ZM592.465 98.633C592.465 98.9883 592.521 99.3177 592.634 99.621C592.755 99.9243 592.916 100.189 593.115 100.414C593.323 100.639 593.561 100.817 593.83 100.947C594.107 101.077 594.402 101.142 594.714 101.142C595.026 101.142 595.316 101.077 595.585 100.947C595.862 100.817 596.105 100.639 596.313 100.414C596.521 100.18 596.681 99.9113 596.794 99.608C596.915 99.296 596.976 98.9623 596.976 98.607C596.976 98.2603 596.915 97.9353 596.794 97.632C596.681 97.32 596.521 97.0513 596.313 96.826C596.105 96.592 595.862 96.41 595.585 96.28C595.316 96.15 595.026 96.085 594.714 96.085C594.402 96.085 594.107 96.1543 593.83 96.293C593.561 96.423 593.323 96.605 593.115 96.839C592.916 97.0643 592.755 97.333 592.634 97.645C592.521 97.9483 592.465 98.2777 592.465 98.633ZM605.421 102H604.277V98.204C604.277 97.476 604.165 96.9473 603.939 96.618C603.723 96.2887 603.389 96.124 602.938 96.124C602.704 96.124 602.47 96.1717 602.236 96.267C602.002 96.3537 601.781 96.475 601.573 96.631C601.365 96.787 601.183 96.9733 601.027 97.19C600.871 97.4067 600.754 97.645 600.676 97.905V102H599.532V95.214H600.572V96.67C600.841 96.1933 601.227 95.812 601.729 95.526C602.241 95.24 602.795 95.097 603.393 95.097C603.783 95.097 604.108 95.1707 604.368 95.318C604.628 95.4567 604.836 95.656 604.992 95.916C605.148 96.1673 605.257 96.4663 605.317 96.813C605.387 97.1597 605.421 97.5367 605.421 97.944V102ZM613.089 102H611.945V98.204C611.945 97.476 611.833 96.9473 611.607 96.618C611.391 96.2887 611.057 96.124 610.606 96.124C610.372 96.124 610.138 96.1717 609.904 96.267C609.67 96.3537 609.449 96.475 609.241 96.631C609.033 96.787 608.851 96.9733 608.695 97.19C608.539 97.4067 608.422 97.645 608.344 97.905V102H607.2V95.214H608.24V96.67C608.509 96.1933 608.895 95.812 609.397 95.526C609.909 95.24 610.463 95.097 611.061 95.097C611.451 95.097 611.776 95.1707 612.036 95.318C612.296 95.4567 612.504 95.656 612.66 95.916C612.816 96.1673 612.925 96.4663 612.985 96.813C613.055 97.1597 613.089 97.5367 613.089 97.944V102ZM617.871 102.13C617.36 102.13 616.892 102.039 616.467 101.857C616.043 101.666 615.679 101.411 615.375 101.09C615.072 100.769 614.834 100.397 614.66 99.972C614.496 99.5387 614.413 99.0837 614.413 98.607C614.413 98.1303 614.496 97.6797 614.66 97.255C614.834 96.8303 615.072 96.4577 615.375 96.137C615.687 95.8163 616.056 95.565 616.48 95.383C616.905 95.1923 617.373 95.097 617.884 95.097C618.396 95.097 618.859 95.1923 619.275 95.383C619.7 95.5737 620.06 95.8293 620.354 96.15C620.649 96.462 620.874 96.8303 621.03 97.255C621.195 97.671 621.277 98.1043 621.277 98.555C621.277 98.6503 621.273 98.737 621.264 98.815C621.264 98.893 621.26 98.9537 621.251 98.997H615.622C615.648 99.335 615.726 99.6427 615.856 99.92C615.986 100.197 616.155 100.436 616.363 100.635C616.571 100.834 616.805 100.99 617.065 101.103C617.334 101.216 617.616 101.272 617.91 101.272C618.118 101.272 618.322 101.246 618.521 101.194C618.721 101.133 618.907 101.055 619.08 100.96C619.254 100.865 619.405 100.748 619.535 100.609C619.674 100.47 619.778 100.314 619.847 100.141L620.835 100.414C620.723 100.665 620.567 100.895 620.367 101.103C620.177 101.311 619.951 101.493 619.691 101.649C619.44 101.796 619.158 101.913 618.846 102C618.534 102.087 618.209 102.13 617.871 102.13ZM620.198 98.152C620.172 97.8313 620.09 97.5367 619.951 97.268C619.821 96.9907 619.652 96.7567 619.444 96.566C619.245 96.3753 619.011 96.228 618.742 96.124C618.474 96.0113 618.188 95.955 617.884 95.955C617.581 95.955 617.295 96.0113 617.026 96.124C616.758 96.228 616.519 96.3797 616.311 96.579C616.112 96.7697 615.947 96.9993 615.817 97.268C615.696 97.5367 615.622 97.8313 615.596 98.152H620.198ZM622.094 98.594C622.094 98.1173 622.176 97.6667 622.341 97.242C622.506 96.8173 622.74 96.449 623.043 96.137C623.346 95.8163 623.706 95.565 624.122 95.383C624.547 95.1923 625.019 95.097 625.539 95.097C626.215 95.097 626.796 95.2487 627.281 95.552C627.775 95.8467 628.148 96.2453 628.399 96.748L627.281 97.099C627.108 96.7783 626.865 96.5313 626.553 96.358C626.241 96.176 625.894 96.085 625.513 96.085C625.201 96.085 624.906 96.15 624.629 96.28C624.352 96.4013 624.113 96.5747 623.914 96.8C623.715 97.0253 623.554 97.2897 623.433 97.593C623.32 97.8963 623.264 98.23 623.264 98.594C623.264 98.9493 623.325 99.283 623.446 99.595C623.567 99.907 623.728 100.18 623.927 100.414C624.135 100.639 624.373 100.817 624.642 100.947C624.919 101.077 625.214 101.142 625.526 101.142C625.725 101.142 625.92 101.116 626.111 101.064C626.31 101.003 626.488 100.925 626.644 100.83C626.809 100.735 626.952 100.626 627.073 100.505C627.194 100.375 627.281 100.236 627.333 100.089L628.451 100.427C628.347 100.678 628.2 100.908 628.009 101.116C627.827 101.324 627.61 101.502 627.359 101.649C627.108 101.796 626.826 101.913 626.514 102C626.211 102.087 625.89 102.13 625.552 102.13C625.041 102.13 624.573 102.035 624.148 101.844C623.723 101.653 623.359 101.398 623.056 101.077C622.753 100.756 622.514 100.384 622.341 99.959C622.176 99.5257 622.094 99.0707 622.094 98.594ZM633.257 101.662C633.188 101.697 633.097 101.74 632.984 101.792C632.872 101.835 632.742 101.883 632.594 101.935C632.456 101.978 632.3 102.013 632.126 102.039C631.962 102.074 631.788 102.091 631.606 102.091C631.19 102.091 630.831 101.978 630.527 101.753C630.224 101.519 630.072 101.159 630.072 100.674V96.111H629.149V95.214H630.072V92.952H631.216V95.214H632.737V96.111H631.216V100.323C631.234 100.574 631.316 100.756 631.463 100.869C631.611 100.982 631.784 101.038 631.983 101.038C632.209 101.038 632.412 101.003 632.594 100.934C632.785 100.856 632.915 100.795 632.984 100.752L633.257 101.662ZM637.232 102.13C636.72 102.13 636.252 102.039 635.828 101.857C635.403 101.666 635.039 101.411 634.736 101.09C634.432 100.769 634.194 100.397 634.021 99.972C633.856 99.5387 633.774 99.0837 633.774 98.607C633.774 98.1303 633.856 97.6797 634.021 97.255C634.194 96.8303 634.432 96.4577 634.736 96.137C635.048 95.8163 635.416 95.565 635.841 95.383C636.265 95.1923 636.733 95.097 637.245 95.097C637.756 95.097 638.22 95.1923 638.636 95.383C639.06 95.5737 639.42 95.8293 639.715 96.15C640.009 96.462 640.235 96.8303 640.391 97.255C640.555 97.671 640.638 98.1043 640.638 98.555C640.638 98.6503 640.633 98.737 640.625 98.815C640.625 98.893 640.62 98.9537 640.612 98.997H634.983C635.009 99.335 635.087 99.6427 635.217 99.92C635.347 100.197 635.516 100.436 635.724 100.635C635.932 100.834 636.166 100.99 636.426 101.103C636.694 101.216 636.976 101.272 637.271 101.272C637.479 101.272 637.682 101.246 637.882 101.194C638.081 101.133 638.267 101.055 638.441 100.96C638.614 100.865 638.766 100.748 638.896 100.609C639.034 100.47 639.138 100.314 639.208 100.141L640.196 100.414C640.083 100.665 639.927 100.895 639.728 101.103C639.537 101.311 639.312 101.493 639.052 101.649C638.8 101.796 638.519 101.913 638.207 102C637.895 102.087 637.57 102.13 637.232 102.13ZM639.559 98.152C639.533 97.8313 639.45 97.5367 639.312 97.268C639.182 96.9907 639.013 96.7567 638.805 96.566C638.605 96.3753 638.371 96.228 638.103 96.124C637.834 96.0113 637.548 95.955 637.245 95.955C636.941 95.955 636.655 96.0113 636.387 96.124C636.118 96.228 635.88 96.3797 635.672 96.579C635.472 96.7697 635.308 96.9993 635.178 97.268C635.056 97.5367 634.983 97.8313 634.957 98.152H639.559ZM644.704 102.13C644.236 102.13 643.803 102.035 643.404 101.844C643.006 101.653 642.663 101.398 642.377 101.077C642.091 100.756 641.866 100.384 641.701 99.959C641.545 99.5343 641.467 99.088 641.467 98.62C641.467 98.1433 641.541 97.6927 641.688 97.268C641.844 96.8347 642.057 96.4577 642.325 96.137C642.603 95.8163 642.928 95.565 643.3 95.383C643.682 95.1923 644.098 95.097 644.548 95.097C645.094 95.097 645.58 95.24 646.004 95.526C646.438 95.812 646.78 96.1587 647.031 96.566V92.51H648.175V100.596C648.175 100.865 648.297 101.003 648.539 101.012V102C648.418 102.017 648.318 102.03 648.24 102.039C648.171 102.048 648.102 102.052 648.032 102.052C647.807 102.052 647.608 101.978 647.434 101.831C647.27 101.675 647.187 101.497 647.187 101.298V100.726C646.919 101.168 646.559 101.515 646.108 101.766C645.666 102.009 645.198 102.13 644.704 102.13ZM644.977 101.142C645.185 101.142 645.398 101.103 645.614 101.025C645.84 100.947 646.048 100.839 646.238 100.7C646.438 100.561 646.607 100.401 646.745 100.219C646.893 100.028 646.988 99.829 647.031 99.621V97.671C646.953 97.4543 646.836 97.2507 646.68 97.06C646.524 96.8607 646.347 96.6917 646.147 96.553C645.957 96.4057 645.749 96.293 645.523 96.215C645.307 96.1283 645.09 96.085 644.873 96.085C644.535 96.085 644.228 96.1587 643.95 96.306C643.682 96.4447 643.448 96.6353 643.248 96.878C643.058 97.112 642.91 97.385 642.806 97.697C642.702 98.0003 642.65 98.3123 642.65 98.633C642.65 98.971 642.711 99.296 642.832 99.608C642.954 99.9113 643.118 100.176 643.326 100.401C643.534 100.626 643.777 100.808 644.054 100.947C644.34 101.077 644.648 101.142 644.977 101.142Z" fill="#7DBA21"/>
<path d="M283.588 185.043C284.669 184.815 285.729 185.507 285.957 186.588L289.667 204.201C289.895 205.282 289.203 206.343 288.122 206.571C287.041 206.798 285.981 206.107 285.753 205.026L282.455 189.369L266.799 192.667C265.718 192.895 264.657 192.203 264.429 191.122C264.202 190.041 264.893 188.981 265.974 188.753L283.588 185.043ZM55.0898 137.229C55.2772 137.491 55.4668 137.752 55.6583 138.013L52.4326 140.379C52.2326 140.106 52.0346 139.833 51.8386 139.559L55.0898 137.229ZM58.6817 141.916C59.0967 142.425 59.5192 142.933 59.9491 143.439L56.8987 146.027C56.4526 145.501 56.0138 144.974 55.5824 144.445L58.6817 141.916ZM63.2325 147.139C63.6826 147.624 64.1393 148.108 64.6024 148.592L61.7146 151.359C61.2364 150.86 60.7646 150.36 60.2993 149.858L63.2325 147.139ZM68.0937 152.096C68.574 152.56 69.0601 153.023 69.5519 153.484L66.8142 156.401C66.3084 155.926 65.8082 155.45 65.3138 154.972L68.0937 152.096ZM73.2139 156.807C73.7147 157.246 74.2205 157.684 74.7313 158.121L72.1321 161.161C71.6084 160.713 71.0896 160.264 70.5757 159.813L73.2139 156.807ZM78.554 161.289C79.0717 161.705 79.5937 162.12 80.1201 162.533L77.6498 165.679C77.1115 165.257 76.5774 164.832 76.0476 164.406L78.554 161.289ZM84.0837 165.558C84.6155 165.952 85.1512 166.345 85.6907 166.737L83.3413 169.974C82.7907 169.574 82.2437 169.173 81.7005 168.77L84.0837 165.558ZM89.7781 169.624C90.3223 169.999 90.8699 170.371 91.4208 170.743L89.1855 174.06C88.6241 173.682 88.0659 173.302 87.5111 172.92L89.7781 169.624ZM95.6125 173.496C96.1691 173.852 96.7287 174.207 97.2912 174.56L95.1646 177.948C94.5921 177.588 94.0224 177.227 93.4556 176.864L95.6125 173.496ZM101.552 177.169C102.127 177.513 102.704 177.855 103.285 178.195L101.262 181.646C100.672 181.3 100.085 180.952 99.5 180.603L101.552 177.169ZM107.61 180.669C108.193 180.995 108.778 181.318 109.365 181.64L107.443 185.148C106.846 184.821 106.252 184.492 105.66 184.161L107.61 180.669ZM113.775 183.999C114.365 184.307 114.957 184.613 115.551 184.918L113.727 188.478C113.124 188.168 112.522 187.857 111.923 187.544L113.775 183.999ZM120.033 187.16C120.631 187.451 121.23 187.741 121.831 188.029L120.103 191.636C119.493 191.344 118.885 191.05 118.278 190.754L120.033 187.16ZM126.367 190.149C126.975 190.426 127.583 190.701 128.194 190.973L126.561 194.625C125.942 194.348 125.324 194.069 124.708 193.788L126.367 190.149ZM132.778 192.972C133.393 193.233 134.008 193.492 134.625 193.749L133.088 197.442C132.462 197.181 131.837 196.918 131.214 196.653L132.778 192.972ZM139.264 195.63C139.885 195.875 140.506 196.117 141.129 196.358L139.687 200.089C139.055 199.845 138.425 199.599 137.795 199.35L139.264 195.63ZM145.815 198.119C146.442 198.348 147.07 198.575 147.699 198.799L146.354 202.567C145.716 202.339 145.079 202.109 144.443 201.876L145.815 198.119ZM152.426 200.437C153.059 200.65 153.693 200.86 154.327 201.068L153.081 204.869C152.437 204.658 151.794 204.445 151.152 204.229L152.426 200.437ZM159.099 202.582C159.736 202.777 160.374 202.97 161.011 203.16L159.868 206.993C159.22 206.8 158.573 206.604 157.926 206.406L159.099 202.582ZM165.825 204.546C166.468 204.724 167.111 204.899 167.755 205.072L166.717 208.935C166.063 208.76 165.41 208.581 164.757 208.4L165.825 204.546ZM172.596 206.321C173.245 206.481 173.895 206.639 174.544 206.793L173.617 210.684C172.957 210.527 172.297 210.367 171.636 210.204L172.596 206.321ZM179.407 207.898C180.062 208.04 180.717 208.178 181.372 208.314L180.561 212.231C179.895 212.093 179.229 211.952 178.562 211.808L179.407 207.898ZM186.278 209.272C186.93 209.392 187.582 209.508 188.233 209.622L187.546 213.562C186.883 213.447 186.22 213.328 185.555 213.206L186.278 209.272ZM193.181 210.424C193.839 210.522 194.496 210.617 195.151 210.709L194.598 214.67C193.929 214.577 193.26 214.48 192.589 214.379L193.181 210.424ZM200.109 211.337C200.772 211.412 201.434 211.484 202.094 211.552L201.685 215.531C201.01 215.461 200.335 215.388 199.658 215.311L200.109 211.337ZM207.052 211.993C207.72 212.043 208.387 212.089 209.051 212.131L208.799 216.123C208.119 216.08 207.437 216.033 206.754 215.982L207.052 211.993ZM214.002 212.369C214.674 212.391 215.345 212.409 216.012 212.422L215.933 216.421C215.248 216.407 214.56 216.389 213.871 216.367L214.002 212.369ZM220.977 212.438C221.642 212.429 222.305 212.415 222.965 212.396L223.077 216.395C222.398 216.414 221.716 216.428 221.032 216.438L220.977 212.438ZM227.935 212.165C228.591 212.122 229.244 212.073 229.894 212.02L230.219 216.007C229.548 216.062 228.874 216.111 228.197 216.156L227.935 212.165ZM234.85 211.51C235.501 211.429 236.149 211.342 236.794 211.25L237.361 215.209C236.692 215.305 236.021 215.395 235.345 215.479L234.85 211.51ZM241.691 210.428C242.336 210.304 242.976 210.173 243.611 210.037L244.451 213.948C243.788 214.09 243.121 214.226 242.45 214.356L241.691 210.428ZM248.416 208.867C249.049 208.694 249.676 208.515 250.297 208.329L251.444 212.161C250.791 212.356 250.134 212.544 249.472 212.726L248.416 208.867ZM254.968 206.77C255.581 206.543 256.187 206.309 256.788 206.068L258.278 209.78C257.644 210.034 257.004 210.282 256.358 210.521L254.968 206.77ZM261.268 204.078C261.852 203.792 262.43 203.498 263 203.196L264.87 206.733C264.262 207.054 263.648 207.366 263.027 207.67L261.268 204.078ZM267.217 200.74C267.763 200.391 268.3 200.033 268.83 199.668L271.103 202.959C270.535 203.351 269.958 203.735 269.374 204.109L267.217 200.74ZM272.698 196.726C273.194 196.312 273.681 195.888 274.159 195.456L276.841 198.424C276.324 198.891 275.799 199.347 275.265 199.794L272.698 196.726ZM277.59 192.038C278.023 191.561 278.448 191.075 278.863 190.579L281.928 193.149C281.478 193.686 281.019 194.212 280.549 194.728L277.59 192.038ZM281.783 186.721C281.966 186.452 282.146 186.181 282.325 185.908L285.675 188.092C285.482 188.388 285.287 188.682 285.089 188.973L281.783 186.721Z" fill="#66C63A"/>
<path d="M558.173 36.0031C559.241 36.284 560.335 35.6456 560.616 34.5773L565.192 17.1688C565.473 16.1005 564.835 15.0069 563.766 14.7261C562.698 14.4452 561.605 15.0836 561.324 16.1518L557.256 31.6261L541.782 27.5582C540.713 27.2774 539.62 27.9157 539.339 28.984C539.058 30.0523 539.696 31.1459 540.765 31.4268L558.173 36.0031ZM375.479 101.827C375.609 101.53 375.74 101.234 375.874 100.938L372.227 99.2954C372.088 99.6031 371.951 99.9111 371.816 100.219L375.479 101.827ZM377.996 96.5043C378.292 95.9201 378.594 95.3365 378.902 94.7536L375.366 92.8836C375.047 93.4868 374.734 94.091 374.428 94.6962L377.996 96.5043ZM381.293 90.4531C381.625 89.8849 381.962 89.3176 382.304 88.7512L378.881 86.6816C378.528 87.2659 378.18 87.8514 377.838 88.4381L381.293 90.4531ZM384.931 84.5876C385.294 84.0354 385.662 83.4843 386.035 82.9344L382.725 80.6887C382.341 81.2545 381.963 81.8217 381.589 82.3904L384.931 84.5876ZM388.871 78.9087C389.26 78.3752 389.655 77.8429 390.053 77.3121L386.855 74.9098C386.446 75.4549 386.041 76.0015 385.641 76.5496L388.871 78.9087ZM393.08 73.4159C393.493 72.9011 393.911 72.3878 394.332 71.8761L391.244 69.3333C390.812 69.8578 390.384 70.3841 389.961 70.912L393.08 73.4159ZM397.532 68.1083C397.966 67.612 398.405 67.1174 398.847 66.6245L395.868 63.9545C395.416 64.459 394.967 64.9654 394.522 65.4736L397.532 68.1083ZM402.204 62.9855C402.658 62.5073 403.115 62.031 403.576 61.5567L400.706 58.7705C400.235 59.2554 399.767 59.7425 399.303 60.2315L402.204 62.9855ZM407.078 58.0475C407.549 57.5872 408.024 57.1289 408.502 56.6728L405.74 53.7794C405.252 54.2454 404.767 54.7136 404.285 55.1839L407.078 58.0475ZM412.136 53.2953C412.625 52.8526 413.116 52.4122 413.61 51.974L410.957 48.9811C410.452 49.4284 409.95 49.8781 409.451 50.33L412.136 53.2953ZM417.364 48.7313C417.869 48.306 418.377 47.8832 418.887 47.4628L416.342 44.3765C415.822 44.8055 415.304 45.237 414.788 45.6711L417.364 48.7313ZM422.752 44.3575C423.273 43.9499 423.795 43.5448 424.32 43.1424L421.886 39.968C421.351 40.3786 420.817 40.7919 420.286 41.2078L422.752 44.3575ZM428.293 40.1751C428.827 39.7864 429.364 39.4003 429.902 39.0171L427.581 35.759C427.032 36.15 426.485 36.5438 425.94 36.9405L428.293 40.1751ZM433.979 36.1903C434.527 35.8207 435.076 35.454 435.627 35.0904L433.423 31.7521C432.861 32.1232 432.3 32.4973 431.741 32.8746L433.979 36.1903ZM439.802 32.4108C440.363 32.0608 440.925 31.7141 441.489 31.3706L439.407 27.955C438.831 28.3057 438.257 28.6597 437.685 29.017L439.802 32.4108ZM445.755 28.8461C446.329 28.5166 446.904 28.1905 447.481 27.868L445.526 24.3778C444.938 24.7073 444.35 25.0404 443.764 25.377L445.755 28.8461ZM451.833 25.5079C452.42 25.1999 453.008 24.8956 453.597 24.5952L451.778 21.0326C451.176 21.3398 450.575 21.6509 449.975 21.9658L451.833 25.5079ZM458.031 22.4103C458.631 22.1252 459.231 21.8443 459.832 21.5675L458.158 17.9345C457.543 18.2179 456.928 18.5056 456.314 18.7973L458.031 22.4103ZM464.344 19.5699C464.956 19.3099 465.569 19.0542 466.181 18.8031L464.664 15.1021C464.036 15.3596 463.408 15.6216 462.78 15.8882L464.344 19.5699ZM470.778 17.0042C471.399 16.7729 472.019 16.5463 472.64 16.3246L471.293 12.558C470.656 12.7858 470.018 13.0185 469.381 13.2561L470.778 17.0042ZM477.317 14.7437C477.945 14.5437 478.573 14.3487 479.2 14.1591L478.043 10.3303C477.397 10.5256 476.75 10.7263 476.103 10.9323L477.317 14.7437ZM483.952 12.8203C484.587 12.6545 485.222 12.4943 485.856 12.3398L484.908 8.45367C484.254 8.61327 483.598 8.7787 482.942 8.94989L483.952 12.8203ZM490.671 11.2724C491.314 11.1445 491.955 11.0228 492.594 10.9073L491.883 6.97102C491.22 7.09078 490.556 7.21696 489.89 7.34946L490.671 11.2724ZM497.458 10.1464C498.107 10.061 498.753 9.9824 499.397 9.91068L498.955 5.93524C498.284 6.00996 497.611 6.0918 496.936 6.18067L497.458 10.1464ZM504.288 9.49725C504.941 9.46002 505.591 9.43032 506.239 9.40824L506.103 5.41057C505.424 5.4337 504.743 5.4648 504.061 5.50374L504.288 9.49725ZM511.125 9.38888C511.78 9.40664 512.43 9.43276 513.078 9.46732L513.291 5.47301C512.608 5.43656 511.923 5.40905 511.234 5.39035L511.125 9.38888ZM517.918 9.89255C518.568 9.9729 519.214 10.0625 519.855 10.1614L520.465 6.20815C519.783 6.10305 519.098 6.00797 518.409 5.92278L517.918 9.89255ZM524.606 11.0849C525.239 11.2345 525.868 11.3942 526.491 11.5639L527.542 7.70446C526.875 7.52275 526.203 7.35205 525.527 7.19219L524.606 11.0849ZM531.086 13.0337C531.69 13.2575 532.29 13.4919 532.884 13.7371L534.41 10.0399C533.77 9.77559 533.125 9.52312 532.474 9.28229L531.086 13.0337ZM537.236 15.7825C537.802 16.0831 538.363 16.3949 538.917 16.7179L540.931 13.2617C540.331 12.9119 539.724 12.5744 539.111 12.2491L537.236 15.7825ZM542.937 19.3383C543.456 19.7151 543.969 20.1034 544.475 20.5033L546.955 17.3647C546.406 16.9312 545.85 16.5103 545.288 16.1017L542.937 19.3383ZM548.084 23.661C548.546 24.1085 549.002 24.5674 549.452 25.038L552.344 22.275C551.858 21.7663 551.365 21.2699 550.864 20.7856L548.084 23.661ZM552.598 28.6635C552.995 29.1666 553.386 29.6806 553.77 30.2057L556.999 27.8446C556.586 27.2805 556.166 26.7277 555.739 26.1861L552.598 28.6635ZM556.447 34.2251C556.618 34.5064 556.787 34.7904 556.954 35.077L560.409 33.0607C560.23 32.7547 560.05 32.4515 559.868 32.151L556.447 34.2251Z" fill="#66C63A"/>
<path d="M118 75C118 107.593 91.8008 134 59.5 134C27.1992 134 1 107.593 1 75C1 42.4073 27.1992 16 59.5 16C91.8008 16 118 42.4073 118 75Z" stroke="#7DBA21" stroke-width="2"/>
<path d="M73.5459 41.8226C73.5459 41.8216 73.5459 41.8207 73.5459 41.8197C73.5459 41.4201 73.3132 41.1098 73.0422 40.9201C72.7694 40.7291 72.419 40.6265 72.0557 40.6264H72.0556H65.4379V40.6167H72.0556C72.636 40.6167 73.1413 40.7828 73.4883 41.0256C73.8371 41.2698 73.9883 41.5585 73.9883 41.8196V41.8197C73.9883 41.8703 73.9825 41.9224 73.9705 41.9755L73.5459 41.8226Z" fill="black" stroke="#7DBA21"/>
<path d="M61.565 40.6167H62.3571V40.6264H61.565V40.6167Z" fill="black" stroke="#7DBA21"/>
<path d="M43.4546 49.6519H67.9387V49.6616H43.4546V49.6519Z" fill="black" stroke="#7DBA21"/>
<path d="M43.4546 68.0574H67.9387V68.0671H43.4546V68.0574Z" fill="black" stroke="#7DBA21"/>
<path d="M77.9571 50.8208L74.8471 52.9978L74.6991 52.8941L77.0758 51.2305L77.6609 50.8209L77.0758 50.4112L76.764 50.193L76.9122 50.0893L77.9571 50.8208Z" fill="black" stroke="#7DBA21"/>
<path d="M72.7832 54.199L72.9248 54.0999L73.1255 54.2404L72.9839 54.3395L72.7832 54.199Z" fill="black" stroke="#7DBA21"/>
<path d="M82.5488 46.9295L82.5489 46.9295C83.2013 47.3861 83.5 47.9463 83.5 48.488C83.5 49.0296 83.2012 49.5896 82.5487 50.0463L82.0271 50.4114L82.3139 50.821L82.0271 50.4114L81.778 50.5858L82.0647 50.9954L81.778 50.5858L81.0073 51.1254L81.0073 51.1254L72.2072 57.2854L71.9939 57.4347V57.6951V72.1084H38.6758V69.1124V68.6124H38.1758H34.5V41.8195C34.5 41.0829 34.9276 40.3629 35.7227 39.8064C36.5159 39.2511 37.6373 38.8916 38.897 38.8916H72.0555C73.3152 38.8916 74.4366 39.2511 75.2298 39.8064C76.0249 40.3629 76.4525 41.0829 76.4525 41.8196C76.4525 42.5165 76.0707 43.1965 75.3562 43.7399C74.6421 44.283 73.6253 44.6614 72.4626 44.734L71.9937 44.7633V45.233V49.076V50.0363L72.7804 49.4856L75.4242 47.635L76.4442 46.9211L76.1575 46.5114L76.4442 46.921L76.9658 46.5559C77.6409 46.0834 78.5536 45.8325 79.4905 45.8325C80.4275 45.8325 81.3402 46.0834 82.0152 46.5559L82.2992 46.1502L82.0152 46.5559L82.5488 46.9295ZM42.3643 38.9013H40.7827L42.0769 39.8105C42.8685 40.3666 43.2941 41.0847 43.2941 41.8196C43.2941 42.5543 42.8684 43.2725 42.0769 43.8286L40.7828 44.7377H42.3643H72.0556C73.0984 44.7377 74.0648 44.4416 74.7839 43.9383C75.5011 43.4362 76.0101 42.6947 76.0101 41.8196C76.0101 40.9444 75.5012 40.2029 74.7839 39.7008C74.0649 39.1974 73.0984 38.9013 72.0556 38.9013H42.3643ZM38.1758 68.6027H38.6758V68.1027V44.7376H38.8971C39.9398 44.7376 40.9063 44.4416 41.6253 43.9382C42.3426 43.4362 42.8516 42.6947 42.8516 41.8195C42.8516 40.9444 42.3426 40.2028 41.6254 39.7008C40.9063 39.1974 39.9398 38.9013 38.8971 38.9013C37.8543 38.9013 36.8879 39.1974 36.1688 39.7007C35.4515 40.2028 34.9425 40.9443 34.9425 41.8195V68.1027V68.6027H35.4425H38.1758ZM71.0515 72.0987H71.5515V71.5987V58.705V57.7447L70.7648 58.2954L66.5663 61.2343L65.2669 62.1439H66.8531H67.938V62.1537H65.4106H65.253L65.1238 62.2441L63.2616 63.5476L59.745 64.2773L59.8466 65.2669H67.9381V65.2766H43.4543V65.2669H55.1645H55.4958L55.6249 64.9619L56.52 62.8485L56.8143 62.1535H56.0596H43.4543V62.1438H56.4871H56.8183L56.9475 61.8388L57.7119 60.0339L57.8459 59.9401L59.1454 59.0305H57.5592H43.4543V59.0207H59.0016H59.1592L59.2883 58.9303L62.3073 56.8171L63.6067 55.9074H62.0205H43.4543V55.8977H63.4629H63.6205L63.7496 55.8073L66.7687 53.694L68.0681 52.7844H66.482H43.4543V52.7746H67.9243H68.0819L68.211 52.6842L71.3381 50.4953L71.5514 50.346V50.0857V45.2475V44.7475H71.0514H39.6182H39.1182V45.2475V71.5987V72.0987H39.6182H71.0515ZM58.5806 60.5201L58.0744 60.1657L57.8334 60.7347L56.3914 64.14L56.0195 65.0184L56.9534 64.8245L61.818 63.8151L62.9516 63.5798L62.0031 62.9159L58.5806 60.5201ZM62.7966 63.2641L63.0833 63.4648L63.3701 63.2641L80.5607 51.2306L81.1459 50.821L80.5607 50.4113L76.4442 47.5298L76.1575 47.3291L75.8708 47.5298L58.6801 59.5633L58.0949 59.9729L58.6801 60.3825L62.7966 63.2641ZM81.0074 50.5166L81.2941 50.7173L81.5809 50.5166L82.1024 50.1514L82.1025 50.1514C82.6794 49.7475 83.0577 49.1633 83.0578 48.4879V48.4878C83.0578 47.8123 82.6794 47.2281 82.1024 46.8242L81.5689 46.4507L81.2855 46.8554L81.5688 46.4506C80.9749 46.0349 80.2206 45.8417 79.4906 45.8417C78.7607 45.8417 78.0064 46.0349 77.4125 46.4507L76.8909 46.8158L76.3057 47.2254L76.8909 47.635L81.0074 50.5166Z" fill="black" stroke="#7DBA21"/>
<path d="M29.964 96.88V98H24.938V96.88H26.926V91.42C26.842 91.532 26.7113 91.6533 26.534 91.784C26.3567 91.9053 26.156 92.022 25.932 92.134C25.7173 92.2367 25.4933 92.3253 25.26 92.4C25.0267 92.4747 24.8213 92.512 24.644 92.512V91.336C24.8493 91.336 25.078 91.28 25.33 91.168C25.582 91.0467 25.82 90.9113 26.044 90.762C26.2773 90.6033 26.4733 90.454 26.632 90.314C26.8 90.1647 26.898 90.062 26.926 90.006H28.186V96.88H29.964ZM31.1987 98V96.432H32.2347V98H31.1987ZM37.8638 98V88.06H42.1198C42.5585 88.06 42.9598 88.1533 43.3238 88.34C43.6972 88.5173 44.0145 88.76 44.2758 89.068C44.5465 89.3667 44.7565 89.7073 44.9058 90.09C45.0552 90.4633 45.1298 90.846 45.1298 91.238C45.1298 91.5833 45.0785 91.9193 44.9758 92.246C44.8825 92.5633 44.7425 92.8527 44.5558 93.114C44.3785 93.3753 44.1592 93.5993 43.8978 93.786C43.6458 93.9727 43.3612 94.108 43.0438 94.192L45.4518 98H44.0238L41.7558 94.43H39.1238V98H37.8638ZM39.1238 93.31H42.1338C42.3952 93.31 42.6285 93.254 42.8338 93.142C43.0485 93.03 43.2305 92.8807 43.3798 92.694C43.5292 92.498 43.6458 92.274 43.7298 92.022C43.8138 91.77 43.8558 91.5087 43.8558 91.238C43.8558 90.958 43.8045 90.6967 43.7018 90.454C43.6085 90.202 43.4778 89.9827 43.3098 89.796C43.1512 89.6 42.9598 89.4507 42.7358 89.348C42.5212 89.236 42.2925 89.18 42.0498 89.18H39.1238V93.31ZM49.8706 98.14C49.3199 98.14 48.8159 98.042 48.3586 97.846C47.9012 97.6407 47.5092 97.3653 47.1826 97.02C46.8559 96.6747 46.5992 96.2733 46.4126 95.816C46.2352 95.3493 46.1466 94.8593 46.1466 94.346C46.1466 93.8327 46.2352 93.3473 46.4126 92.89C46.5992 92.4327 46.8559 92.0313 47.1826 91.686C47.5186 91.3407 47.9152 91.07 48.3726 90.874C48.8299 90.6687 49.3339 90.566 49.8846 90.566C50.4352 90.566 50.9346 90.6687 51.3826 90.874C51.8399 91.0793 52.2272 91.3547 52.5446 91.7C52.8619 92.036 53.1046 92.4327 53.2726 92.89C53.4499 93.338 53.5386 93.8047 53.5386 94.29C53.5386 94.3927 53.5339 94.486 53.5246 94.57C53.5246 94.654 53.5199 94.7193 53.5106 94.766H47.4486C47.4766 95.13 47.5606 95.4613 47.7006 95.76C47.8406 96.0587 48.0226 96.3153 48.2466 96.53C48.4706 96.7447 48.7226 96.9127 49.0026 97.034C49.2919 97.1553 49.5952 97.216 49.9126 97.216C50.1366 97.216 50.3559 97.188 50.5706 97.132C50.7852 97.0667 50.9859 96.9827 51.1726 96.88C51.3592 96.7773 51.5226 96.6513 51.6626 96.502C51.8119 96.3527 51.9239 96.1847 51.9986 95.998L53.0626 96.292C52.9412 96.5627 52.7732 96.81 52.5586 97.034C52.3532 97.258 52.1106 97.454 51.8306 97.622C51.5599 97.7807 51.2566 97.9067 50.9206 98C50.5846 98.0933 50.2346 98.14 49.8706 98.14ZM52.3766 93.856C52.3486 93.5107 52.2599 93.1933 52.1106 92.904C51.9706 92.6053 51.7886 92.3533 51.5646 92.148C51.3499 91.9427 51.0979 91.784 50.8086 91.672C50.5192 91.5507 50.2112 91.49 49.8846 91.49C49.5579 91.49 49.2499 91.5507 48.9606 91.672C48.6712 91.784 48.4146 91.9473 48.1906 92.162C47.9759 92.3673 47.7986 92.6147 47.6586 92.904C47.5279 93.1933 47.4486 93.5107 47.4206 93.856H52.3766ZM57.8201 98.084C57.3254 98.084 56.8681 97.9813 56.4481 97.776C56.0374 97.5707 55.6827 97.2953 55.3841 96.95C55.0854 96.6047 54.8521 96.208 54.6841 95.76C54.5254 95.312 54.4461 94.8453 54.4461 94.36C54.4461 93.8467 54.5254 93.3613 54.6841 92.904C54.8521 92.4373 55.0854 92.0313 55.3841 91.686C55.6827 91.3407 56.0374 91.07 56.4481 90.874C56.8681 90.6687 57.3301 90.566 57.8341 90.566C58.4501 90.566 58.9821 90.7153 59.4301 91.014C59.8781 91.3127 60.2561 91.6907 60.5641 92.148V90.692H61.6561V97.916C61.6561 98.4387 61.5581 98.896 61.3621 99.288C61.1661 99.6893 60.9001 100.025 60.5641 100.296C60.2281 100.567 59.8314 100.772 59.3741 100.912C58.9261 101.052 58.4454 101.122 57.9321 101.122C57.1014 101.122 56.4247 100.977 55.9021 100.688C55.3887 100.408 54.9594 100.016 54.6141 99.512L55.3281 98.882C55.6174 99.3113 55.9907 99.6333 56.4481 99.848C56.9054 100.063 57.4001 100.17 57.9321 100.17C58.2681 100.17 58.5854 100.123 58.8841 100.03C59.1921 99.9367 59.4581 99.7967 59.6821 99.61C59.9061 99.4233 60.0834 99.19 60.2141 98.91C60.3541 98.63 60.4241 98.2987 60.4241 97.916V96.628C60.2841 96.852 60.1161 97.0573 59.9201 97.244C59.7334 97.4213 59.5281 97.5753 59.3041 97.706C59.0801 97.8273 58.8421 97.9207 58.5901 97.986C58.3381 98.0513 58.0814 98.084 57.8201 98.084ZM58.1981 97.076C58.4594 97.076 58.7114 97.0293 58.9541 96.936C59.1967 96.8427 59.4207 96.7213 59.6261 96.572C59.8314 96.4133 60.0041 96.236 60.1441 96.04C60.2841 95.844 60.3774 95.6433 60.4241 95.438V93.338C60.3214 93.086 60.1861 92.8573 60.0181 92.652C59.8594 92.4467 59.6774 92.2693 59.4721 92.12C59.2667 91.9613 59.0427 91.84 58.8001 91.756C58.5667 91.672 58.3287 91.63 58.0861 91.63C57.7127 91.63 57.3767 91.7093 57.0781 91.868C56.7887 92.0267 56.5414 92.2367 56.3361 92.498C56.1307 92.7593 55.9721 93.058 55.8601 93.394C55.7481 93.7207 55.6921 94.052 55.6921 94.388C55.6921 94.752 55.7574 95.0973 55.8881 95.424C56.0187 95.7507 56.1961 96.0353 56.4201 96.278C56.6441 96.5207 56.9054 96.7167 57.2041 96.866C57.5121 97.006 57.8434 97.076 58.1981 97.076ZM63.6444 98V90.692H64.8764V98H63.6444ZM63.6444 89.32V87.78H64.8764V89.32H63.6444ZM69.433 98.14C68.845 98.14 68.2663 98.0513 67.697 97.874C67.1276 97.6873 66.6376 97.4213 66.227 97.076L66.759 96.25C67.1883 96.5767 67.6176 96.824 68.047 96.992C68.4763 97.1507 68.929 97.23 69.405 97.23C69.937 97.23 70.357 97.1273 70.665 96.922C70.9823 96.7073 71.141 96.4087 71.141 96.026C71.141 95.8487 71.099 95.6993 71.015 95.578C70.931 95.4473 70.805 95.3353 70.637 95.242C70.469 95.1487 70.2543 95.0647 69.993 94.99C69.7316 94.9153 69.4283 94.836 69.083 94.752C68.6443 94.64 68.2663 94.5327 67.949 94.43C67.6316 94.3273 67.3703 94.206 67.165 94.066C66.9596 93.926 66.8103 93.758 66.717 93.562C66.6236 93.366 66.577 93.1233 66.577 92.834C66.577 92.47 66.647 92.148 66.787 91.868C66.9363 91.5787 67.137 91.3407 67.389 91.154C67.641 90.958 67.935 90.8133 68.271 90.72C68.6163 90.6173 68.985 90.566 69.377 90.566C69.9276 90.566 70.441 90.6547 70.917 90.832C71.393 91.0093 71.7943 91.2427 72.121 91.532L71.561 92.274C71.253 92.0033 70.9076 91.8027 70.525 91.672C70.1423 91.532 69.7503 91.462 69.349 91.462C68.901 91.462 68.5183 91.56 68.201 91.756C67.893 91.9427 67.739 92.246 67.739 92.666C67.739 92.834 67.767 92.974 67.823 93.086C67.8883 93.198 67.991 93.296 68.131 93.38C68.271 93.464 68.4483 93.5387 68.663 93.604C68.887 93.6693 69.153 93.7393 69.461 93.814C69.9463 93.926 70.3663 94.0427 70.721 94.164C71.085 94.276 71.3836 94.4113 71.617 94.57C71.8596 94.7287 72.037 94.9153 72.149 95.13C72.2703 95.3447 72.331 95.606 72.331 95.914C72.331 96.5953 72.0696 97.1367 71.547 97.538C71.0243 97.9393 70.3196 98.14 69.433 98.14ZM77.5689 97.636C77.4943 97.6733 77.3963 97.72 77.2749 97.776C77.1536 97.8227 77.0136 97.874 76.8549 97.93C76.7056 97.9767 76.5376 98.014 76.3509 98.042C76.1736 98.0793 75.9869 98.098 75.7909 98.098C75.3429 98.098 74.9556 97.9767 74.6289 97.734C74.3023 97.482 74.1389 97.0947 74.1389 96.572V91.658H73.1449V90.692H74.1389V88.256H75.3709V90.692H77.0089V91.658H75.3709V96.194C75.3896 96.4647 75.4783 96.6607 75.6369 96.782C75.7956 96.9033 75.9823 96.964 76.1969 96.964C76.4396 96.964 76.6589 96.9267 76.8549 96.852C77.0603 96.768 77.2003 96.7027 77.2749 96.656L77.5689 97.636ZM81.8491 98.14C81.2984 98.14 80.7944 98.042 80.3371 97.846C79.8798 97.6407 79.4878 97.3653 79.1611 97.02C78.8344 96.6747 78.5778 96.2733 78.3911 95.816C78.2138 95.3493 78.1251 94.8593 78.1251 94.346C78.1251 93.8327 78.2138 93.3473 78.3911 92.89C78.5778 92.4327 78.8344 92.0313 79.1611 91.686C79.4971 91.3407 79.8938 91.07 80.3511 90.874C80.8084 90.6687 81.3124 90.566 81.8631 90.566C82.4138 90.566 82.9131 90.6687 83.3611 90.874C83.8184 91.0793 84.2058 91.3547 84.5231 91.7C84.8404 92.036 85.0831 92.4327 85.2511 92.89C85.4284 93.338 85.5171 93.8047 85.5171 94.29C85.5171 94.3927 85.5124 94.486 85.5031 94.57C85.5031 94.654 85.4984 94.7193 85.4891 94.766H79.4271C79.4551 95.13 79.5391 95.4613 79.6791 95.76C79.8191 96.0587 80.0011 96.3153 80.2251 96.53C80.4491 96.7447 80.7011 96.9127 80.9811 97.034C81.2704 97.1553 81.5738 97.216 81.8911 97.216C82.1151 97.216 82.3344 97.188 82.5491 97.132C82.7638 97.0667 82.9644 96.9827 83.1511 96.88C83.3378 96.7773 83.5011 96.6513 83.6411 96.502C83.7904 96.3527 83.9024 96.1847 83.9771 95.998L85.0411 96.292C84.9198 96.5627 84.7518 96.81 84.5371 97.034C84.3318 97.258 84.0891 97.454 83.8091 97.622C83.5384 97.7807 83.2351 97.9067 82.8991 98C82.5631 98.0933 82.2131 98.14 81.8491 98.14ZM84.3551 93.856C84.3271 93.5107 84.2384 93.1933 84.0891 92.904C83.9491 92.6053 83.7671 92.3533 83.5431 92.148C83.3284 91.9427 83.0764 91.784 82.7871 91.672C82.4978 91.5507 82.1898 91.49 81.8631 91.49C81.5364 91.49 81.2284 91.5507 80.9391 91.672C80.6498 91.784 80.3931 91.9473 80.1691 92.162C79.9544 92.3673 79.7771 92.6147 79.6371 92.904C79.5064 93.1933 79.4271 93.5107 79.3991 93.856H84.3551ZM90.7506 91.77C90.1346 91.7887 89.5886 91.9473 89.1126 92.246C88.6459 92.5447 88.3146 92.96 88.1186 93.492V98H86.8866V90.692H88.0346V92.386C88.2866 91.882 88.6179 91.476 89.0286 91.168C89.4392 90.8507 89.8779 90.6733 90.3446 90.636C90.4379 90.636 90.5172 90.636 90.5826 90.636C90.6479 90.636 90.7039 90.6407 90.7506 90.65V91.77Z" fill="#7DBA21"/>
<path d="M387 147C387 179.593 360.801 206 328.5 206C296.199 206 270 179.593 270 147C270 114.407 296.199 88 328.5 88C360.801 88 387 114.407 387 147Z" stroke="#7DBA21" stroke-width="2"/>
<path d="M349.666 112.583H306.334C304.496 112.583 303 113.63 303 114.917V134.167C303 134.489 303.373 134.75 303.833 134.75H352.167C352.627 134.75 353 134.489 353 134.167V114.917C353 113.63 351.504 112.583 349.666 112.583ZM351.333 133.583H304.667V114.917C304.667 114.273 305.415 113.75 306.334 113.75H349.666C350.585 113.75 351.333 114.273 351.333 114.917V133.583Z" fill="#7DBA21"/>
<path d="M352.167 133.583H303.833C303.373 133.583 303 133.845 303 134.167V137.083C303 138.37 304.496 139.417 306.334 139.417H349.666C351.504 139.417 353 138.37 353 137.083V134.167C353 133.845 352.627 133.583 352.167 133.583ZM351.333 137.083C351.333 137.727 350.585 138.25 349.666 138.25H306.334C305.415 138.25 304.667 137.727 304.667 137.083V134.75H351.333V137.083H351.333Z" fill="#7DBA21"/>
<path d="M330.5 135.917H325.5C325.04 135.917 324.667 136.178 324.667 136.5C324.667 136.822 325.04 137.083 325.5 137.083H330.5C330.96 137.083 331.333 136.822 331.333 136.5C331.333 136.178 330.96 135.917 330.5 135.917Z" fill="#7DBA21"/>
<path d="M348.833 114.917H307.167C306.707 114.917 306.333 115.178 306.333 115.5V134.167C306.333 134.489 306.707 134.75 307.167 134.75H348.833C349.293 134.75 349.667 134.489 349.667 134.167V115.5C349.667 115.178 349.293 114.917 348.833 114.917ZM348 133.583H308V116.083H348V133.583Z" fill="#7DBA21"/>
<path d="M338.833 142.917H317.167C315.788 142.917 314.667 143.702 314.667 144.667C314.667 145.632 315.788 146.417 317.167 146.417H338.833C340.212 146.417 341.333 145.632 341.333 144.667C341.333 143.702 340.212 142.917 338.833 142.917ZM338.833 145.25H317.167C316.707 145.25 316.333 144.988 316.333 144.667C316.333 144.345 316.707 144.083 317.167 144.083H338.833C339.293 144.083 339.667 144.345 339.667 144.667C339.667 144.988 339.293 145.25 338.833 145.25Z" fill="#7DBA21"/>
<path d="M337.167 142.917C334.402 142.917 333 141.543 333 138.833C333 138.511 332.627 138.25 332.167 138.25H323.833C323.373 138.25 323 138.511 323 138.833C323 141.543 321.598 142.917 318.833 142.917C318.373 142.917 318 143.178 318 143.5C318 143.822 318.373 144.083 318.833 144.083H337.167C337.627 144.083 338 143.822 338 143.5C338 143.178 337.627 142.917 337.167 142.917ZM322.892 142.917C323.918 142.121 324.522 140.936 324.644 139.417H331.357C331.477 140.936 332.082 142.121 333.108 142.917H322.892Z" fill="#7DBA21"/>
<path d="M342.82 129.771L340.808 128.363L341.928 127.579C342.135 127.434 342.218 127.223 342.147 127.024C342.075 126.825 341.859 126.667 341.578 126.608L333.245 124.858C332.951 124.796 332.633 124.853 332.417 125.004C332.199 125.156 332.119 125.379 332.208 125.584L334.708 131.417C334.792 131.615 335.017 131.766 335.302 131.816C335.585 131.865 335.888 131.808 336.095 131.662L337.273 130.837L339.285 132.246C339.441 132.355 339.653 132.417 339.874 132.417C340.095 132.417 340.307 132.355 340.463 132.246L342.82 130.596C343.146 130.367 343.146 129.999 342.82 129.771ZM339.874 131.009L338.042 129.726C337.83 129.577 337.552 129.503 337.273 129.503C336.994 129.503 336.716 129.578 336.504 129.725L335.903 130.146L334.248 126.286L339.763 127.444L339.117 127.896C338.94 128.021 338.842 128.186 338.842 128.363C338.842 128.539 338.941 128.706 339.119 128.83L341.052 130.183L339.874 131.009Z" fill="#7DBA21"/>
<path d="M338 117.25H314.667C314.207 117.25 313.833 117.511 313.833 117.833V120.75C313.833 121.072 314.207 121.333 314.667 121.333H338C338.46 121.333 338.833 121.072 338.833 120.75V117.833C338.833 117.511 338.46 117.25 338 117.25ZM337.167 120.167H315.5V118.417H337.167V120.167V120.167Z" fill="#7DBA21"/>
<path d="M324.667 123.667H318C317.54 123.667 317.167 123.928 317.167 124.25V126.583C317.167 126.905 317.54 127.167 318 127.167H324.667C325.127 127.167 325.5 126.905 325.5 126.583V124.25C325.5 123.928 325.127 123.667 324.667 123.667ZM323.833 126H318.833V124.833H323.833V126V126Z" fill="#7DBA21"/>
<path d="M338 117.25H314.667C314.207 117.25 313.833 117.511 313.833 117.833V128.917C313.833 129.239 314.207 129.5 314.667 129.5H334.505C334.769 129.5 335.017 129.413 335.173 129.265C335.331 129.117 335.379 128.925 335.303 128.749L334.248 126.286L337.761 127.024C338.013 127.077 338.287 127.044 338.498 126.933C338.709 126.824 338.833 126.65 338.833 126.465V117.833C338.833 117.511 338.46 117.25 338 117.25ZM337.167 125.682L333.244 124.858C332.95 124.796 332.633 124.853 332.416 125.004C332.198 125.157 332.118 125.379 332.207 125.585L333.385 128.333H315.5V118.417H337.167V125.682V125.682Z" fill="#7DBA21"/>
<path d="M277.602 170C277.602 169.627 277.63 169.277 277.686 168.95C277.751 168.623 277.868 168.311 278.036 168.012C278.204 167.713 278.433 167.429 278.722 167.158C279.021 166.887 279.408 166.617 279.884 166.346C280.164 166.197 280.449 166.052 280.738 165.912C281.027 165.763 281.289 165.609 281.522 165.45C281.765 165.282 281.961 165.105 282.11 164.918C282.269 164.731 282.348 164.512 282.348 164.26C282.348 164.101 282.311 163.943 282.236 163.784C282.161 163.625 282.054 163.485 281.914 163.364C281.774 163.243 281.597 163.145 281.382 163.07C281.177 162.995 280.939 162.958 280.668 162.958C280.388 162.958 280.131 163 279.898 163.084C279.674 163.159 279.473 163.257 279.296 163.378C279.119 163.49 278.965 163.611 278.834 163.742C278.703 163.873 278.596 163.989 278.512 164.092L277.714 163.196C277.789 163.112 277.915 163 278.092 162.86C278.269 162.711 278.493 162.561 278.764 162.412C279.035 162.263 279.347 162.137 279.702 162.034C280.057 161.922 280.453 161.866 280.892 161.866C281.321 161.866 281.709 161.927 282.054 162.048C282.399 162.16 282.689 162.319 282.922 162.524C283.165 162.729 283.351 162.972 283.482 163.252C283.613 163.523 283.678 163.812 283.678 164.12C283.678 164.484 283.599 164.801 283.44 165.072C283.281 165.343 283.085 165.581 282.852 165.786C282.628 165.991 282.385 166.169 282.124 166.318C281.863 166.458 281.629 166.579 281.424 166.682C281.219 166.785 280.985 166.911 280.724 167.06C280.472 167.2 280.229 167.363 279.996 167.55C279.763 167.727 279.557 167.928 279.38 168.152C279.212 168.376 279.105 168.619 279.058 168.88H283.832V170H277.602ZM285.388 170V168.432H286.424V170H285.388ZM292.053 170V160.06H296.197C296.636 160.06 297.037 160.153 297.401 160.34C297.775 160.517 298.092 160.76 298.353 161.068C298.624 161.367 298.834 161.707 298.983 162.09C299.133 162.463 299.207 162.846 299.207 163.238C299.207 163.649 299.137 164.045 298.997 164.428C298.857 164.811 298.657 165.151 298.395 165.45C298.143 165.749 297.835 165.987 297.471 166.164C297.117 166.341 296.72 166.43 296.281 166.43H293.313V170H292.053ZM293.313 165.31H296.211C296.473 165.31 296.706 165.259 296.911 165.156C297.126 165.044 297.308 164.895 297.457 164.708C297.607 164.512 297.723 164.288 297.807 164.036C297.891 163.784 297.933 163.518 297.933 163.238C297.933 162.949 297.882 162.678 297.779 162.426C297.686 162.174 297.555 161.955 297.387 161.768C297.229 161.581 297.037 161.437 296.813 161.334C296.599 161.231 296.37 161.18 296.127 161.18H293.313V165.31ZM303.635 170.14C303.085 170.14 302.581 170.037 302.123 169.832C301.675 169.627 301.288 169.351 300.961 169.006C300.644 168.661 300.397 168.259 300.219 167.802C300.042 167.345 299.953 166.864 299.953 166.36C299.953 165.847 300.042 165.361 300.219 164.904C300.406 164.447 300.658 164.045 300.975 163.7C301.302 163.355 301.689 163.079 302.137 162.874C302.595 162.669 303.094 162.566 303.635 162.566C304.177 162.566 304.676 162.669 305.133 162.874C305.591 163.079 305.978 163.355 306.295 163.7C306.622 164.045 306.874 164.447 307.051 164.904C307.238 165.361 307.331 165.847 307.331 166.36C307.331 166.864 307.243 167.345 307.065 167.802C306.888 168.259 306.636 168.661 306.309 169.006C305.983 169.351 305.591 169.627 305.133 169.832C304.685 170.037 304.186 170.14 303.635 170.14ZM301.213 166.374C301.213 166.757 301.274 167.111 301.395 167.438C301.526 167.765 301.699 168.049 301.913 168.292C302.137 168.535 302.394 168.726 302.683 168.866C302.982 169.006 303.299 169.076 303.635 169.076C303.971 169.076 304.284 169.006 304.573 168.866C304.872 168.726 305.133 168.535 305.357 168.292C305.581 168.04 305.754 167.751 305.875 167.424C306.006 167.088 306.071 166.729 306.071 166.346C306.071 165.973 306.006 165.623 305.875 165.296C305.754 164.96 305.581 164.671 305.357 164.428C305.133 164.176 304.872 163.98 304.573 163.84C304.284 163.7 303.971 163.63 303.635 163.63C303.299 163.63 302.982 163.705 302.683 163.854C302.394 163.994 302.137 164.19 301.913 164.442C301.699 164.685 301.526 164.974 301.395 165.31C301.274 165.637 301.213 165.991 301.213 166.374ZM311.386 170.14C310.798 170.14 310.219 170.051 309.65 169.874C309.081 169.687 308.591 169.421 308.18 169.076L308.712 168.25C309.141 168.577 309.571 168.824 310 168.992C310.429 169.151 310.882 169.23 311.358 169.23C311.89 169.23 312.31 169.127 312.618 168.922C312.935 168.707 313.094 168.409 313.094 168.026C313.094 167.849 313.052 167.699 312.968 167.578C312.884 167.447 312.758 167.335 312.59 167.242C312.422 167.149 312.207 167.065 311.946 166.99C311.685 166.915 311.381 166.836 311.036 166.752C310.597 166.64 310.219 166.533 309.902 166.43C309.585 166.327 309.323 166.206 309.118 166.066C308.913 165.926 308.763 165.758 308.67 165.562C308.577 165.366 308.53 165.123 308.53 164.834C308.53 164.47 308.6 164.148 308.74 163.868C308.889 163.579 309.09 163.341 309.342 163.154C309.594 162.958 309.888 162.813 310.224 162.72C310.569 162.617 310.938 162.566 311.33 162.566C311.881 162.566 312.394 162.655 312.87 162.832C313.346 163.009 313.747 163.243 314.074 163.532L313.514 164.274C313.206 164.003 312.861 163.803 312.478 163.672C312.095 163.532 311.703 163.462 311.302 163.462C310.854 163.462 310.471 163.56 310.154 163.756C309.846 163.943 309.692 164.246 309.692 164.666C309.692 164.834 309.72 164.974 309.776 165.086C309.841 165.198 309.944 165.296 310.084 165.38C310.224 165.464 310.401 165.539 310.616 165.604C310.84 165.669 311.106 165.739 311.414 165.814C311.899 165.926 312.319 166.043 312.674 166.164C313.038 166.276 313.337 166.411 313.57 166.57C313.813 166.729 313.99 166.915 314.102 167.13C314.223 167.345 314.284 167.606 314.284 167.914C314.284 168.595 314.023 169.137 313.5 169.538C312.977 169.939 312.273 170.14 311.386 170.14ZM319.522 169.636C319.447 169.673 319.349 169.72 319.228 169.776C319.107 169.823 318.967 169.874 318.808 169.93C318.659 169.977 318.491 170.014 318.304 170.042C318.127 170.079 317.94 170.098 317.744 170.098C317.296 170.098 316.909 169.977 316.582 169.734C316.255 169.482 316.092 169.095 316.092 168.572V163.658H315.098V162.692H316.092V160.256H317.324V162.692H318.962V163.658H317.324V168.194C317.343 168.465 317.431 168.661 317.59 168.782C317.749 168.903 317.935 168.964 318.15 168.964C318.393 168.964 318.612 168.927 318.808 168.852C319.013 168.768 319.153 168.703 319.228 168.656L319.522 169.636ZM328.139 170.14C327.532 170.14 326.996 169.991 326.529 169.692C326.072 169.393 325.708 169.015 325.437 168.558V172.982H324.205V162.692H325.297V164.064C325.586 163.616 325.96 163.257 326.417 162.986C326.884 162.706 327.397 162.566 327.957 162.566C328.461 162.566 328.923 162.669 329.343 162.874C329.763 163.079 330.127 163.359 330.435 163.714C330.743 164.059 330.981 164.461 331.149 164.918C331.326 165.375 331.415 165.851 331.415 166.346C331.415 166.869 331.336 167.363 331.177 167.83C331.018 168.287 330.794 168.689 330.505 169.034C330.216 169.37 329.87 169.641 329.469 169.846C329.068 170.042 328.624 170.14 328.139 170.14ZM327.761 169.076C328.125 169.076 328.452 169.001 328.741 168.852C329.04 168.693 329.292 168.488 329.497 168.236C329.712 167.975 329.875 167.681 329.987 167.354C330.099 167.027 330.155 166.691 330.155 166.346C330.155 165.982 330.09 165.637 329.959 165.31C329.828 164.974 329.651 164.685 329.427 164.442C329.203 164.19 328.937 163.994 328.629 163.854C328.33 163.705 328.004 163.63 327.649 163.63C327.425 163.63 327.192 163.677 326.949 163.77C326.716 163.854 326.492 163.971 326.277 164.12C326.072 164.26 325.89 164.433 325.731 164.638C325.582 164.834 325.484 165.044 325.437 165.268V167.354C325.54 167.597 325.67 167.825 325.829 168.04C325.988 168.245 326.17 168.427 326.375 168.586C326.58 168.735 326.8 168.857 327.033 168.95C327.266 169.034 327.509 169.076 327.761 169.076ZM336.792 163.77C336.176 163.789 335.63 163.947 335.154 164.246C334.687 164.545 334.356 164.96 334.16 165.492V170H332.928V162.692H334.076V164.386C334.328 163.882 334.659 163.476 335.07 163.168C335.48 162.851 335.919 162.673 336.386 162.636C336.479 162.636 336.558 162.636 336.624 162.636C336.689 162.636 336.745 162.641 336.792 162.65V163.77ZM341.041 170.14C340.491 170.14 339.987 170.037 339.529 169.832C339.081 169.627 338.694 169.351 338.367 169.006C338.05 168.661 337.803 168.259 337.625 167.802C337.448 167.345 337.359 166.864 337.359 166.36C337.359 165.847 337.448 165.361 337.625 164.904C337.812 164.447 338.064 164.045 338.381 163.7C338.708 163.355 339.095 163.079 339.543 162.874C340.001 162.669 340.5 162.566 341.041 162.566C341.583 162.566 342.082 162.669 342.539 162.874C342.997 163.079 343.384 163.355 343.701 163.7C344.028 164.045 344.28 164.447 344.457 164.904C344.644 165.361 344.737 165.847 344.737 166.36C344.737 166.864 344.649 167.345 344.471 167.802C344.294 168.259 344.042 168.661 343.715 169.006C343.389 169.351 342.997 169.627 342.539 169.832C342.091 170.037 341.592 170.14 341.041 170.14ZM338.619 166.374C338.619 166.757 338.68 167.111 338.801 167.438C338.932 167.765 339.105 168.049 339.319 168.292C339.543 168.535 339.8 168.726 340.089 168.866C340.388 169.006 340.705 169.076 341.041 169.076C341.377 169.076 341.69 169.006 341.979 168.866C342.278 168.726 342.539 168.535 342.763 168.292C342.987 168.04 343.16 167.751 343.281 167.424C343.412 167.088 343.477 166.729 343.477 166.346C343.477 165.973 343.412 165.623 343.281 165.296C343.16 164.96 342.987 164.671 342.763 164.428C342.539 164.176 342.278 163.98 341.979 163.84C341.69 163.7 341.377 163.63 341.041 163.63C340.705 163.63 340.388 163.705 340.089 163.854C339.8 163.994 339.543 164.19 339.319 164.442C339.105 164.685 338.932 164.974 338.801 165.31C338.68 165.637 338.619 165.991 338.619 166.374ZM350.164 170.14C349.558 170.14 349.021 169.991 348.554 169.692C348.097 169.393 347.733 169.015 347.462 168.558V172.982H346.23V162.692H347.322V164.064C347.612 163.616 347.985 163.257 348.442 162.986C348.909 162.706 349.422 162.566 349.982 162.566C350.486 162.566 350.948 162.669 351.368 162.874C351.788 163.079 352.152 163.359 352.46 163.714C352.768 164.059 353.006 164.461 353.174 164.918C353.352 165.375 353.44 165.851 353.44 166.346C353.44 166.869 353.361 167.363 353.202 167.83C353.044 168.287 352.82 168.689 352.53 169.034C352.241 169.37 351.896 169.641 351.494 169.846C351.093 170.042 350.65 170.14 350.164 170.14ZM349.786 169.076C350.15 169.076 350.477 169.001 350.766 168.852C351.065 168.693 351.317 168.488 351.522 168.236C351.737 167.975 351.9 167.681 352.012 167.354C352.124 167.027 352.18 166.691 352.18 166.346C352.18 165.982 352.115 165.637 351.984 165.31C351.854 164.974 351.676 164.685 351.452 164.442C351.228 164.19 350.962 163.994 350.654 163.854C350.356 163.705 350.029 163.63 349.674 163.63C349.45 163.63 349.217 163.677 348.974 163.77C348.741 163.854 348.517 163.971 348.302 164.12C348.097 164.26 347.915 164.433 347.756 164.638C347.607 164.834 347.509 165.044 347.462 165.268V167.354C347.565 167.597 347.696 167.825 347.854 168.04C348.013 168.245 348.195 168.427 348.4 168.586C348.606 168.735 348.825 168.857 349.058 168.95C349.292 169.034 349.534 169.076 349.786 169.076ZM358.187 170.14C357.636 170.14 357.132 170.042 356.675 169.846C356.218 169.641 355.826 169.365 355.499 169.02C355.172 168.675 354.916 168.273 354.729 167.816C354.552 167.349 354.463 166.859 354.463 166.346C354.463 165.833 354.552 165.347 354.729 164.89C354.916 164.433 355.172 164.031 355.499 163.686C355.835 163.341 356.232 163.07 356.689 162.874C357.146 162.669 357.65 162.566 358.201 162.566C358.752 162.566 359.251 162.669 359.699 162.874C360.156 163.079 360.544 163.355 360.861 163.7C361.178 164.036 361.421 164.433 361.589 164.89C361.766 165.338 361.855 165.805 361.855 166.29C361.855 166.393 361.85 166.486 361.841 166.57C361.841 166.654 361.836 166.719 361.827 166.766H355.765C355.793 167.13 355.877 167.461 356.017 167.76C356.157 168.059 356.339 168.315 356.563 168.53C356.787 168.745 357.039 168.913 357.319 169.034C357.608 169.155 357.912 169.216 358.229 169.216C358.453 169.216 358.672 169.188 358.887 169.132C359.102 169.067 359.302 168.983 359.489 168.88C359.676 168.777 359.839 168.651 359.979 168.502C360.128 168.353 360.24 168.185 360.315 167.998L361.379 168.292C361.258 168.563 361.09 168.81 360.875 169.034C360.67 169.258 360.427 169.454 360.147 169.622C359.876 169.781 359.573 169.907 359.237 170C358.901 170.093 358.551 170.14 358.187 170.14ZM360.693 165.856C360.665 165.511 360.576 165.193 360.427 164.904C360.287 164.605 360.105 164.353 359.881 164.148C359.666 163.943 359.414 163.784 359.125 163.672C358.836 163.551 358.528 163.49 358.201 163.49C357.874 163.49 357.566 163.551 357.277 163.672C356.988 163.784 356.731 163.947 356.507 164.162C356.292 164.367 356.115 164.615 355.975 164.904C355.844 165.193 355.765 165.511 355.737 165.856H360.693ZM367.088 163.77C366.472 163.789 365.926 163.947 365.45 164.246C364.984 164.545 364.652 164.96 364.456 165.492V170H363.224V162.692H364.372V164.386C364.624 163.882 364.956 163.476 365.366 163.168C365.777 162.851 366.216 162.673 366.682 162.636C366.776 162.636 366.855 162.636 366.92 162.636C366.986 162.636 367.042 162.641 367.088 162.65V163.77ZM372.09 169.636C372.016 169.673 371.918 169.72 371.796 169.776C371.675 169.823 371.535 169.874 371.376 169.93C371.227 169.977 371.059 170.014 370.872 170.042C370.695 170.079 370.508 170.098 370.312 170.098C369.864 170.098 369.477 169.977 369.15 169.734C368.824 169.482 368.66 169.095 368.66 168.572V163.658H367.666V162.692H368.66V160.256H369.892V162.692H371.53V163.658H369.892V168.194C369.911 168.465 370 168.661 370.158 168.782C370.317 168.903 370.504 168.964 370.718 168.964C370.961 168.964 371.18 168.927 371.376 168.852C371.582 168.768 371.722 168.703 371.796 168.656L372.09 169.636ZM373.568 171.988C373.69 172.007 373.811 172.021 373.932 172.03C374.054 172.039 374.147 172.044 374.212 172.044C374.324 172.044 374.422 172.016 374.506 171.96C374.6 171.913 374.688 171.815 374.772 171.666C374.866 171.517 374.968 171.307 375.08 171.036C375.192 170.775 375.332 170.429 375.5 170L372.406 162.692H373.68L376.172 168.894L378.44 162.692H379.616L376.06 171.918C375.93 172.245 375.71 172.529 375.402 172.772C375.104 173.024 374.688 173.15 374.156 173.15C374.072 173.15 373.984 173.145 373.89 173.136C373.806 173.127 373.699 173.108 373.568 173.08V171.988Z" fill="#7DBA21"/>
</svg>
