<svg width="116" height="52" viewBox="0 0 116 52" fill="none" xmlns="http://www.w3.org/2000/svg">
<path d="M99.5565 29.2072L86.5227 18.6882V6.53691C86.5227 4.33979 84.3167 2.5592 81.5903 2.5592C78.8702 2.5592 76.6641 4.33979 76.6641 6.53691V10.7318L66.9595 2.89924C62.1614 -0.971009 53.8192 -0.964144 49.032 2.90624L16.4429 29.2072C14.519 30.7629 14.519 33.2802 16.4429 34.8335C18.3675 36.3888 21.4926 36.3888 23.4166 34.8335L56.0027 8.53186C57.0642 7.6796 58.9353 7.6796 59.9913 8.52933L92.5829 34.8335C93.5493 35.6112 94.8093 35.9981 96.0689 35.9981C97.3311 35.9981 98.5932 35.6108 99.5566 34.8335C101.481 33.2803 101.481 30.7631 99.5565 29.2072Z" fill="white"/>
<path d="M9.66406 42.0859C9.66406 43.3099 9.33333 44.2891 8.67188 45.0234C7.98958 45.7786 7.04427 46.1562 5.83594 46.1562C5.53906 46.1562 5.08854 46.1458 4.48438 46.125C3.88542 46.099 3.4349 46.0859 3.13281 46.0859C2.96615 46.0859 2.88281 46.1927 2.88281 46.4062C2.88281 46.6823 2.89844 47.0964 2.92969 47.6484C2.96615 48.2005 2.98438 48.6146 2.98438 48.8906C2.98438 48.9792 2.9349 49.0234 2.83594 49.0234C2.72656 49.0234 2.5599 49.013 2.33594 48.9922C2.11719 48.9661 1.95312 48.9531 1.84375 48.9531C1.75 48.9531 1.61198 48.9609 1.42969 48.9766C1.2474 48.9922 1.11198 49 1.02344 49C0.893229 49 0.828125 48.9193 0.828125 48.7578C0.828125 48.1901 0.851562 47.3333 0.898438 46.1875C0.950521 45.0417 0.976562 44.1823 0.976562 43.6094C0.976562 41.9844 0.916667 40.2396 0.796875 38.375L0.789062 38.2578C0.783854 38.1432 0.851562 38.0859 0.992188 38.0859C1.27344 38.0859 1.69531 38.0885 2.25781 38.0938C2.82552 38.099 3.2526 38.1016 3.53906 38.1016C3.78385 38.1016 4.15104 38.0911 4.64062 38.0703C5.13021 38.0495 5.4974 38.0391 5.74219 38.0391C6.89323 38.0391 7.83854 38.4297 8.57812 39.2109C9.30208 39.9766 9.66406 40.9349 9.66406 42.0859ZM7.69531 42.2031C7.69531 41.4219 7.48438 40.7969 7.0625 40.3281C6.625 39.8385 6.02083 39.5938 5.25 39.5938C5.01042 39.5938 4.58333 39.6146 3.96875 39.6562C3.26562 39.6979 2.90365 39.7396 2.88281 39.7812C2.84635 39.8438 2.82812 40.7396 2.82812 42.4688C2.82812 42.6875 2.83333 43.0156 2.84375 43.4531C2.85938 43.8906 2.86719 44.2188 2.86719 44.4375C2.86719 44.4844 2.92448 44.5208 3.03906 44.5469C3.32552 44.6042 4.11979 44.6328 5.42188 44.6328C6.15104 44.6328 6.71875 44.4062 7.125 43.9531C7.50521 43.5208 7.69531 42.9375 7.69531 42.2031ZM15.25 41.6641C15.25 42.237 15.2109 42.7578 15.1328 43.2266C15.1172 43.3464 15.0651 43.4062 14.9766 43.4062C14.8672 43.4062 14.7005 43.3958 14.4766 43.375C14.2578 43.349 14.0911 43.3359 13.9766 43.3359C13.3203 43.3359 12.901 43.5208 12.7188 43.8906C12.6094 44.1146 12.5547 44.5807 12.5547 45.2891V46.1484C12.5547 46.4401 12.5651 46.8828 12.5859 47.4766C12.612 48.0703 12.625 48.513 12.625 48.8047C12.625 48.9453 12.5651 49.0156 12.4453 49.0156C12.2839 49.0156 12.0391 49.013 11.7109 49.0078C11.3828 49.0026 11.138 49 10.9766 49C10.8568 49 10.7969 48.9349 10.7969 48.8047C10.7969 48.3828 10.8021 47.7474 10.8125 46.8984C10.8281 46.0495 10.8359 45.4115 10.8359 44.9844C10.8359 43.6979 10.7161 42.6641 10.4766 41.8828C10.4661 41.8411 10.4609 41.8099 10.4609 41.7891C10.4609 41.7266 10.4948 41.6823 10.5625 41.6562C10.7552 41.6354 11.026 41.6042 11.375 41.5625C11.9375 41.4583 12.1979 41.4062 12.1562 41.4062C12.2396 41.4062 12.2943 41.5599 12.3203 41.8672C12.3464 42.1745 12.3932 42.3281 12.4609 42.3281C12.4714 42.3281 12.4844 42.3229 12.5 42.3125C12.7135 42.1771 12.9271 42.0417 13.1406 41.9062C13.375 41.7656 13.6146 41.6615 13.8594 41.5938C14.0625 41.5312 14.3229 41.5 14.6406 41.5C15.0469 41.5 15.25 41.5547 15.25 41.6641ZM23.1875 45.1953C23.1875 46.2839 22.8307 47.2135 22.1172 47.9844C21.388 48.7812 20.4844 49.1797 19.4062 49.1797C18.3229 49.1797 17.4167 48.7839 16.6875 47.9922C15.974 47.2266 15.6172 46.2995 15.6172 45.2109C15.6172 44.1224 15.974 43.1953 16.6875 42.4297C17.4219 41.6484 18.3281 41.2578 19.4062 41.2578C20.4792 41.2578 21.3802 41.6484 22.1094 42.4297C22.8281 43.1901 23.1875 44.112 23.1875 45.1953ZM21.5391 45.2109C21.5391 44.5755 21.3438 44.0339 20.9531 43.5859C20.5469 43.112 20.0312 42.875 19.4062 42.875C18.7812 42.875 18.263 43.1094 17.8516 43.5781C17.4609 44.0312 17.2656 44.5755 17.2656 45.2109C17.2656 45.8359 17.4635 46.3776 17.8594 46.8359C18.276 47.3203 18.7917 47.5625 19.4062 47.5625C20.026 47.5625 20.5417 47.3203 20.9531 46.8359C21.3438 46.3776 21.5391 45.8359 21.5391 45.2109ZM32.1094 45.2422C32.1094 46.2943 31.776 47.2083 31.1094 47.9844C30.4115 48.8021 29.5443 49.2109 28.5078 49.2109C27.862 49.2109 27.2969 49.0104 26.8125 48.6094C26.5938 48.4062 26.375 48.2005 26.1562 47.9922C26.125 48.0078 26.1042 48.0495 26.0938 48.1172C26.0885 48.1484 26.0859 48.4401 26.0859 48.9922L26.0781 51.1953C26.0781 51.362 26.0182 51.4453 25.8984 51.4453C25.0964 51.4453 24.6224 51.4349 24.4766 51.4141C24.3568 51.3984 24.2969 51.3307 24.2969 51.2109C24.2969 50.5443 24.3021 49.5443 24.3125 48.2109C24.3229 46.8776 24.3281 45.8776 24.3281 45.2109C24.3281 43.987 24.25 42.8385 24.0938 41.7656C24.0833 41.7031 24.0781 41.6615 24.0781 41.6406C24.0781 41.5833 24.1042 41.5469 24.1562 41.5312C24.3542 41.5208 24.6432 41.4922 25.0234 41.4453C25.5339 41.3516 25.8203 41.3047 25.8828 41.3047C25.9714 41.3047 26.0286 41.4609 26.0547 41.7734C26.0703 41.9818 26.0833 42.1875 26.0938 42.3906C26.0938 42.4323 26.1094 42.474 26.1406 42.5156C26.1771 42.4948 26.2188 42.4583 26.2656 42.4062C26.9948 41.6615 27.7318 41.2891 28.4766 41.2891C29.5078 41.2891 30.3776 41.6927 31.0859 42.5C31.7682 43.276 32.1094 44.1901 32.1094 45.2422ZM30.2812 45.2109C30.2812 44.5859 30.0859 44.0365 29.6953 43.5625C29.2839 43.0573 28.7708 42.8047 28.1562 42.8047C27.5521 42.8047 27.0573 43.0651 26.6719 43.5859C26.3177 44.0547 26.1406 44.6016 26.1406 45.2266C26.1406 45.862 26.3229 46.4141 26.6875 46.8828C27.0885 47.388 27.599 47.6406 28.2188 47.6406C28.8125 47.6406 29.3125 47.3776 29.7188 46.8516C30.0938 46.362 30.2812 45.8151 30.2812 45.2109ZM39.9453 44.8047C39.9453 45.1901 39.7786 45.4479 39.4453 45.5781C39.2214 45.6615 37.6094 45.8151 34.6094 46.0391C34.6771 46.4974 34.9297 46.888 35.3672 47.2109C35.7839 47.5182 36.2318 47.6719 36.7109 47.6719C37.5339 47.6719 38.2891 47.4062 38.9766 46.875C39.0599 46.8073 39.1432 46.7396 39.2266 46.6719C39.2682 46.6719 39.2943 46.6771 39.3047 46.6875C39.3203 46.6979 39.4193 46.8802 39.6016 47.2344C39.7839 47.5833 39.875 47.7708 39.875 47.7969C39.875 47.8281 39.8333 47.888 39.75 47.9766C38.9844 48.7891 38.0026 49.1953 36.8047 49.1953C35.5964 49.1953 34.6328 48.8359 33.9141 48.1172C33.1953 47.3932 32.8359 46.4297 32.8359 45.2266C32.8359 44.1536 33.1797 43.2188 33.8672 42.4219C34.5911 41.5938 35.4792 41.1797 36.5312 41.1797C37.5104 41.1797 38.3281 41.5391 38.9844 42.2578C39.625 42.9557 39.9453 43.8047 39.9453 44.8047ZM38.0859 44.3281C38.0859 43.8958 37.9141 43.513 37.5703 43.1797C37.2318 42.8464 36.849 42.6797 36.4219 42.6797C35.9427 42.6797 35.5156 42.8724 35.1406 43.2578C34.7708 43.6432 34.5859 44.0755 34.5859 44.5547C34.5859 44.6641 34.6797 44.7188 34.8672 44.7188C35.638 44.7188 36.5599 44.6406 37.6328 44.4844C37.9349 44.4427 38.0859 44.3906 38.0859 44.3281ZM45.5156 41.6641C45.5156 42.237 45.4766 42.7578 45.3984 43.2266C45.3828 43.3464 45.3307 43.4062 45.2422 43.4062C45.1328 43.4062 44.9661 43.3958 44.7422 43.375C44.5234 43.349 44.3568 43.3359 44.2422 43.3359C43.5859 43.3359 43.1667 43.5208 42.9844 43.8906C42.875 44.1146 42.8203 44.5807 42.8203 45.2891V46.1484C42.8203 46.4401 42.8307 46.8828 42.8516 47.4766C42.8776 48.0703 42.8906 48.513 42.8906 48.8047C42.8906 48.9453 42.8307 49.0156 42.7109 49.0156C42.5495 49.0156 42.3047 49.013 41.9766 49.0078C41.6484 49.0026 41.4036 49 41.2422 49C41.1224 49 41.0625 48.9349 41.0625 48.8047C41.0625 48.3828 41.0677 47.7474 41.0781 46.8984C41.0938 46.0495 41.1016 45.4115 41.1016 44.9844C41.1016 43.6979 40.9818 42.6641 40.7422 41.8828C40.7318 41.8411 40.7266 41.8099 40.7266 41.7891C40.7266 41.7266 40.7604 41.6823 40.8281 41.6562C41.0208 41.6354 41.2917 41.6042 41.6406 41.5625C42.2031 41.4583 42.4635 41.4062 42.4219 41.4062C42.5052 41.4062 42.5599 41.5599 42.5859 41.8672C42.612 42.1745 42.6589 42.3281 42.7266 42.3281C42.737 42.3281 42.75 42.3229 42.7656 42.3125C42.9792 42.1771 43.1927 42.0417 43.4062 41.9062C43.6406 41.7656 43.8802 41.6615 44.125 41.5938C44.3281 41.5312 44.5885 41.5 44.9062 41.5C45.3125 41.5 45.5156 41.5547 45.5156 41.6641ZM50.7266 47.5625C50.7266 47.6771 50.7161 47.8333 50.6953 48.0312C50.6693 48.276 50.6536 48.4349 50.6484 48.5078C50.6432 48.6016 50.6354 48.6589 50.625 48.6797C50.6042 48.7161 50.5547 48.7526 50.4766 48.7891C50.0495 48.9922 49.3776 49.0938 48.4609 49.0938C47.2422 49.0938 46.6328 48.5417 46.6328 47.4375C46.6328 46.9948 46.6432 46.3307 46.6641 45.4453C46.6849 44.5547 46.6953 43.888 46.6953 43.4453C46.6953 43.2318 46.5885 43.1172 46.375 43.1016C46.1823 43.1016 45.9922 43.099 45.8047 43.0938C45.6953 43.0677 45.6406 42.8542 45.6406 42.4531C45.6406 42.3021 45.651 42.1432 45.6719 41.9766C45.6875 41.8516 45.7708 41.776 45.9219 41.75C46.0521 41.75 46.1797 41.7474 46.3047 41.7422C46.5443 41.7318 46.6641 41.625 46.6641 41.4219C46.6641 41.2135 46.6562 40.8958 46.6406 40.4688C46.6302 40.0417 46.625 39.7214 46.625 39.5078C46.625 39.1276 46.6979 38.9375 46.8438 38.9375C46.8906 38.9375 47.3802 39.0182 48.3125 39.1797C48.4323 39.1953 48.4922 39.2526 48.4922 39.3516C48.4922 39.5807 48.474 39.9245 48.4375 40.3828C48.4062 40.8411 48.3906 41.1849 48.3906 41.4141C48.3906 41.5651 48.4609 41.6406 48.6016 41.6406H50.4766C50.5651 41.6406 50.6094 41.6719 50.6094 41.7344C50.6094 41.7969 50.599 41.8984 50.5781 42.0391C50.5625 42.1745 50.5547 42.276 50.5547 42.3438C50.5547 42.4219 50.5573 42.5417 50.5625 42.7031C50.5677 42.8646 50.5703 42.9844 50.5703 43.0625C50.5703 43.1615 50.4974 43.2109 50.3516 43.2109C50.1432 43.2109 49.8281 43.1979 49.4062 43.1719C48.9844 43.1406 48.6693 43.125 48.4609 43.125C48.4193 43.125 48.388 43.2734 48.3672 43.5703C48.3411 43.9401 48.3281 44.4583 48.3281 45.125V46.2891C48.3281 46.737 48.3698 47.0495 48.4531 47.2266C48.5781 47.4974 48.8359 47.6328 49.2266 47.6328C49.388 47.6328 49.625 47.599 49.9375 47.5312C50.25 47.4583 50.4818 47.4219 50.6328 47.4219C50.6953 47.4219 50.7266 47.4688 50.7266 47.5625ZM58.4219 43.5625C58.4219 44.4427 58.3958 44.974 58.3438 45.1562C58.276 45.3906 57.6302 46.4141 56.4062 48.2266C55.1875 50.0339 54.4635 51.0443 54.2344 51.2578C54.026 51.4453 53.3542 51.5391 52.2188 51.5391C52.0833 51.5391 51.9948 51.5234 51.9531 51.4922C51.9167 51.4661 51.8281 51.2786 51.6875 50.9297C51.5521 50.5807 51.4844 50.3724 51.4844 50.3047C51.4844 50.1901 51.6224 50.1328 51.8984 50.1328C52.4818 50.1328 52.9115 50.0495 53.1875 49.8828C53.2812 49.8255 53.4219 49.6458 53.6094 49.3438C53.8021 49.0417 53.8984 48.8385 53.8984 48.7344C53.8984 48.5938 53.5208 48.0443 52.7656 47.0859C51.9688 46.0703 51.5234 45.4271 51.4297 45.1562C51.3568 44.9427 51.3203 44.4323 51.3203 43.625C51.3203 43.4271 51.3229 43.1302 51.3281 42.7344C51.3333 42.3333 51.3359 42.0312 51.3359 41.8281C51.3359 41.7135 51.3984 41.6562 51.5234 41.6562C51.6901 41.6562 51.9349 41.6667 52.2578 41.6875C52.5859 41.7083 52.8333 41.7188 53 41.7188C53.0833 41.7188 53.125 41.7734 53.125 41.8828C53.125 42.0286 53.1172 42.2474 53.1016 42.5391C53.0859 42.8307 53.0781 43.0495 53.0781 43.1953C53.0781 43.8307 53.099 44.3047 53.1406 44.6172C53.1719 44.8151 53.4557 45.3073 53.9922 46.0938C54.5286 46.8802 54.8594 47.2734 54.9844 47.2734C55.0729 47.2734 55.3542 46.888 55.8281 46.1172C56.3021 45.3411 56.5547 44.862 56.5859 44.6797C56.6276 44.4193 56.6484 43.9453 56.6484 43.2578C56.6484 43.1068 56.6328 42.8854 56.6016 42.5938C56.5703 42.2969 56.5547 42.0755 56.5547 41.9297C56.5547 41.7995 56.5964 41.7344 56.6797 41.7344C56.8464 41.7344 57.0964 41.724 57.4297 41.7031C57.7682 41.6771 58.0208 41.6641 58.1875 41.6641C58.3438 41.6641 58.4219 42.2969 58.4219 43.5625ZM72.3359 42.0859C72.3359 43.3099 72.0052 44.2891 71.3438 45.0234C70.6615 45.7786 69.7161 46.1562 68.5078 46.1562C68.2109 46.1562 67.7604 46.1458 67.1562 46.125C66.5573 46.099 66.1068 46.0859 65.8047 46.0859C65.638 46.0859 65.5547 46.1927 65.5547 46.4062C65.5547 46.6823 65.5703 47.0964 65.6016 47.6484C65.638 48.2005 65.6562 48.6146 65.6562 48.8906C65.6562 48.9792 65.6068 49.0234 65.5078 49.0234C65.3984 49.0234 65.2318 49.013 65.0078 48.9922C64.7891 48.9661 64.625 48.9531 64.5156 48.9531C64.4219 48.9531 64.2839 48.9609 64.1016 48.9766C63.9193 48.9922 63.7839 49 63.6953 49C63.5651 49 63.5 48.9193 63.5 48.7578C63.5 48.1901 63.5234 47.3333 63.5703 46.1875C63.6224 45.0417 63.6484 44.1823 63.6484 43.6094C63.6484 41.9844 63.5885 40.2396 63.4688 38.375L63.4609 38.2578C63.4557 38.1432 63.5234 38.0859 63.6641 38.0859C63.9453 38.0859 64.3672 38.0885 64.9297 38.0938C65.4974 38.099 65.9245 38.1016 66.2109 38.1016C66.4557 38.1016 66.8229 38.0911 67.3125 38.0703C67.8021 38.0495 68.1693 38.0391 68.4141 38.0391C69.5651 38.0391 70.5104 38.4297 71.25 39.2109C71.974 39.9766 72.3359 40.9349 72.3359 42.0859ZM70.3672 42.2031C70.3672 41.4219 70.1562 40.7969 69.7344 40.3281C69.2969 39.8385 68.6927 39.5938 67.9219 39.5938C67.6823 39.5938 67.2552 39.6146 66.6406 39.6562C65.9375 39.6979 65.5755 39.7396 65.5547 39.7812C65.5182 39.8438 65.5 40.7396 65.5 42.4688C65.5 42.6875 65.5052 43.0156 65.5156 43.4531C65.5312 43.8906 65.5391 44.2188 65.5391 44.4375C65.5391 44.4844 65.5964 44.5208 65.7109 44.5469C65.9974 44.6042 66.7917 44.6328 68.0938 44.6328C68.8229 44.6328 69.3906 44.4062 69.7969 43.9531C70.1771 43.5208 70.3672 42.9375 70.3672 42.2031ZM77.9219 41.6641C77.9219 42.237 77.8828 42.7578 77.8047 43.2266C77.7891 43.3464 77.737 43.4062 77.6484 43.4062C77.5391 43.4062 77.3724 43.3958 77.1484 43.375C76.9297 43.349 76.763 43.3359 76.6484 43.3359C75.9922 43.3359 75.5729 43.5208 75.3906 43.8906C75.2812 44.1146 75.2266 44.5807 75.2266 45.2891V46.1484C75.2266 46.4401 75.237 46.8828 75.2578 47.4766C75.2839 48.0703 75.2969 48.513 75.2969 48.8047C75.2969 48.9453 75.237 49.0156 75.1172 49.0156C74.9557 49.0156 74.7109 49.013 74.3828 49.0078C74.0547 49.0026 73.8099 49 73.6484 49C73.5286 49 73.4688 48.9349 73.4688 48.8047C73.4688 48.3828 73.474 47.7474 73.4844 46.8984C73.5 46.0495 73.5078 45.4115 73.5078 44.9844C73.5078 43.6979 73.388 42.6641 73.1484 41.8828C73.138 41.8411 73.1328 41.8099 73.1328 41.7891C73.1328 41.7266 73.1667 41.6823 73.2344 41.6562C73.4271 41.6354 73.6979 41.6042 74.0469 41.5625C74.6094 41.4583 74.8698 41.4062 74.8281 41.4062C74.9115 41.4062 74.9661 41.5599 74.9922 41.8672C75.0182 42.1745 75.0651 42.3281 75.1328 42.3281C75.1432 42.3281 75.1562 42.3229 75.1719 42.3125C75.3854 42.1771 75.599 42.0417 75.8125 41.9062C76.0469 41.7656 76.2865 41.6615 76.5312 41.5938C76.7344 41.5312 76.9948 41.5 77.3125 41.5C77.7188 41.5 77.9219 41.5547 77.9219 41.6641ZM85.8594 45.1953C85.8594 46.2839 85.5026 47.2135 84.7891 47.9844C84.0599 48.7812 83.1562 49.1797 82.0781 49.1797C80.9948 49.1797 80.0885 48.7839 79.3594 47.9922C78.6458 47.2266 78.2891 46.2995 78.2891 45.2109C78.2891 44.1224 78.6458 43.1953 79.3594 42.4297C80.0938 41.6484 81 41.2578 82.0781 41.2578C83.151 41.2578 84.0521 41.6484 84.7812 42.4297C85.5 43.1901 85.8594 44.112 85.8594 45.1953ZM84.2109 45.2109C84.2109 44.5755 84.0156 44.0339 83.625 43.5859C83.2188 43.112 82.7031 42.875 82.0781 42.875C81.4531 42.875 80.9349 43.1094 80.5234 43.5781C80.1328 44.0312 79.9375 44.5755 79.9375 45.2109C79.9375 45.8359 80.1354 46.3776 80.5312 46.8359C80.9479 47.3203 81.4635 47.5625 82.0781 47.5625C82.6979 47.5625 83.2135 47.3203 83.625 46.8359C84.0156 46.3776 84.2109 45.8359 84.2109 45.2109ZM91.9219 43.3594L91.9141 43.4297C91.8672 43.612 91.8047 43.8802 91.7266 44.2344C91.7109 44.4062 91.6771 44.6562 91.625 44.9844C91.6146 45.0312 91.4661 45.0625 91.1797 45.0781C90.9818 45.0885 90.7005 45.0885 90.3359 45.0781C89.8672 45.0677 89.6484 45.0625 89.6797 45.0625C89.3568 45.0625 88.8776 45.0938 88.2422 45.1562C87.6068 45.2135 87.1302 45.2422 86.8125 45.2422C86.6719 45.2422 86.6016 45.1562 86.6016 44.9844C86.6016 44.7448 86.7526 44.2474 87.0547 43.4922C87.0807 43.4193 87.1536 43.3828 87.2734 43.3828C87.4557 43.3828 87.724 43.3906 88.0781 43.4062C88.4323 43.4167 88.7005 43.4219 88.8828 43.4219C89.2005 43.4219 89.6797 43.3906 90.3203 43.3281C90.9609 43.2604 91.4401 43.2266 91.7578 43.2266C91.8724 43.2266 91.9271 43.2708 91.9219 43.3594ZM95.1328 38.1641L95.125 38.2656C95.0104 40.2031 94.9531 41.8672 94.9531 43.2578C94.9531 43.8776 94.9635 44.8073 94.9844 46.0469C95.0052 47.2812 95.0156 48.2057 95.0156 48.8203C95.0156 48.9401 94.974 49 94.8906 49H93.3984C93.3047 49 93.2578 48.9401 93.2578 48.8203C93.2578 48.2057 93.263 47.2812 93.2734 46.0469C93.2839 44.8073 93.2891 43.8776 93.2891 43.2578C93.2891 42.6953 93.2604 41.8516 93.2031 40.7266C93.151 39.5964 93.125 38.7526 93.125 38.1953C93.125 38.0911 93.1797 38.0391 93.2891 38.0391C93.3828 38.0391 93.5234 38.0469 93.7109 38.0625C93.8984 38.0781 94.0391 38.0859 94.1328 38.0859C94.2318 38.0859 94.3776 38.0781 94.5703 38.0625C94.763 38.0469 94.9062 38.0391 95 38.0391C95.0938 38.0391 95.138 38.0807 95.1328 38.1641ZM98.7188 39.6562C98.7188 40.2969 98.362 40.6172 97.6484 40.6172C96.9245 40.6172 96.5625 40.2969 96.5625 39.6562C96.5625 39.3698 96.6745 39.1328 96.8984 38.9453C97.1068 38.7682 97.3568 38.6797 97.6484 38.6797C97.9401 38.6797 98.1901 38.7708 98.3984 38.9531C98.612 39.1354 98.7188 39.3698 98.7188 39.6562ZM98.6641 41.7734C98.6641 42.1745 98.638 42.7812 98.5859 43.5938C98.5391 44.401 98.5156 45.0078 98.5156 45.4141C98.5156 45.7943 98.5234 46.3646 98.5391 47.125C98.5547 47.8802 98.5625 48.4453 98.5625 48.8203C98.5625 48.9297 98.5156 48.9844 98.4219 48.9844H96.8984C96.7891 48.9844 96.7344 48.8776 96.7344 48.6641C96.7344 48.3047 96.7422 47.7656 96.7578 47.0469C96.7786 46.3229 96.7891 45.7786 96.7891 45.4141C96.7891 45.0078 96.7578 44.3984 96.6953 43.5859C96.638 42.7734 96.6094 42.1641 96.6094 41.7578C96.6094 41.6693 96.6641 41.625 96.7734 41.625C96.8672 41.625 97.0104 41.638 97.2031 41.6641C97.401 41.6901 97.5495 41.7031 97.6484 41.7031C97.7474 41.7031 97.8932 41.6901 98.0859 41.6641C98.2839 41.638 98.4323 41.625 98.5312 41.625C98.6198 41.625 98.6641 41.6745 98.6641 41.7734ZM104.57 47.5625C104.57 47.6771 104.56 47.8333 104.539 48.0312C104.513 48.276 104.497 48.4349 104.492 48.5078C104.487 48.6016 104.479 48.6589 104.469 48.6797C104.448 48.7161 104.398 48.7526 104.32 48.7891C103.893 48.9922 103.221 49.0938 102.305 49.0938C101.086 49.0938 100.477 48.5417 100.477 47.4375C100.477 46.9948 100.487 46.3307 100.508 45.4453C100.529 44.5547 100.539 43.888 100.539 43.4453C100.539 43.2318 100.432 43.1172 100.219 43.1016C100.026 43.1016 99.8359 43.099 99.6484 43.0938C99.5391 43.0677 99.4844 42.8542 99.4844 42.4531C99.4844 42.3021 99.4948 42.1432 99.5156 41.9766C99.5312 41.8516 99.6146 41.776 99.7656 41.75C99.8958 41.75 100.023 41.7474 100.148 41.7422C100.388 41.7318 100.508 41.625 100.508 41.4219C100.508 41.2135 100.5 40.8958 100.484 40.4688C100.474 40.0417 100.469 39.7214 100.469 39.5078C100.469 39.1276 100.542 38.9375 100.688 38.9375C100.734 38.9375 101.224 39.0182 102.156 39.1797C102.276 39.1953 102.336 39.2526 102.336 39.3516C102.336 39.5807 102.318 39.9245 102.281 40.3828C102.25 40.8411 102.234 41.1849 102.234 41.4141C102.234 41.5651 102.305 41.6406 102.445 41.6406H104.32C104.409 41.6406 104.453 41.6719 104.453 41.7344C104.453 41.7969 104.443 41.8984 104.422 42.0391C104.406 42.1745 104.398 42.276 104.398 42.3438C104.398 42.4219 104.401 42.5417 104.406 42.7031C104.411 42.8646 104.414 42.9844 104.414 43.0625C104.414 43.1615 104.341 43.2109 104.195 43.2109C103.987 43.2109 103.672 43.1979 103.25 43.1719C102.828 43.1406 102.513 43.125 102.305 43.125C102.263 43.125 102.232 43.2734 102.211 43.5703C102.185 43.9401 102.172 44.4583 102.172 45.125V46.2891C102.172 46.737 102.214 47.0495 102.297 47.2266C102.422 47.4974 102.68 47.6328 103.07 47.6328C103.232 47.6328 103.469 47.599 103.781 47.5312C104.094 47.4583 104.326 47.4219 104.477 47.4219C104.539 47.4219 104.57 47.4688 104.57 47.5625ZM112.305 44.8047C112.305 45.1901 112.138 45.4479 111.805 45.5781C111.581 45.6615 109.969 45.8151 106.969 46.0391C107.036 46.4974 107.289 46.888 107.727 47.2109C108.143 47.5182 108.591 47.6719 109.07 47.6719C109.893 47.6719 110.648 47.4062 111.336 46.875C111.419 46.8073 111.503 46.7396 111.586 46.6719C111.628 46.6719 111.654 46.6771 111.664 46.6875C111.68 46.6979 111.779 46.8802 111.961 47.2344C112.143 47.5833 112.234 47.7708 112.234 47.7969C112.234 47.8281 112.193 47.888 112.109 47.9766C111.344 48.7891 110.362 49.1953 109.164 49.1953C107.956 49.1953 106.992 48.8359 106.273 48.1172C105.555 47.3932 105.195 46.4297 105.195 45.2266C105.195 44.1536 105.539 43.2188 106.227 42.4219C106.951 41.5938 107.839 41.1797 108.891 41.1797C109.87 41.1797 110.688 41.5391 111.344 42.2578C111.984 42.9557 112.305 43.8047 112.305 44.8047ZM110.445 44.3281C110.445 43.8958 110.273 43.513 109.93 43.1797C109.591 42.8464 109.208 42.6797 108.781 42.6797C108.302 42.6797 107.875 42.8724 107.5 43.2578C107.13 43.6432 106.945 44.0755 106.945 44.5547C106.945 44.6641 107.039 44.7188 107.227 44.7188C107.997 44.7188 108.919 44.6406 109.992 44.4844C110.294 44.4427 110.445 44.3906 110.445 44.3281Z" fill="white"/>
</svg>
