<svg width="18" height="16" viewBox="0 0 18 16" fill="none" xmlns="http://www.w3.org/2000/svg">
<path d="M17.9964 6.11668C17.9945 6.0983 17.9904 6.08014 17.9841 6.06255C17.98 6.04683 17.9742 6.03148 17.967 6.01667C17.9586 6.0022 17.9485 5.98851 17.937 5.97586C17.9254 5.96082 17.912 5.94698 17.8971 5.93451C17.8923 5.93079 17.8902 5.9257 17.8851 5.92198L14.9999 3.93012V1.86573C14.9999 1.42389 14.5969 1.06568 14.0998 1.06568H10.8485L9.54674 0.167214C9.22515 -0.0557381 8.77418 -0.0557381 8.45259 0.167214L7.15051 1.06568H3.89924C3.40217 1.06568 2.99919 1.42386 2.99919 1.86573V3.93016L0.114863 5.92201C0.109765 5.92576 0.107656 5.93082 0.102874 5.93454C0.0879322 5.94698 0.0745369 5.96085 0.0629699 5.97589C0.0514381 5.98854 0.0413829 6.0022 0.0329801 6.0167C0.0257024 6.03148 0.0200068 6.04686 0.0158933 6.06258C0.00963521 6.07993 0.00552172 6.0978 0.00358803 6.11593C0.00358803 6.12152 1.90735e-06 6.12633 1.90735e-06 6.13193V15.1999C0.000423804 15.3696 0.0621613 15.5346 0.176109 15.6706C0.177902 15.673 0.178218 15.676 0.180292 15.6781C0.182402 15.6802 0.186902 15.6826 0.18989 15.6856C0.358438 15.8827 0.620576 15.9989 0.899134 16H17.1C17.3796 15.9992 17.6428 15.8825 17.8116 15.6843C17.814 15.6816 17.8176 15.6808 17.8197 15.6781C17.8218 15.6755 17.8221 15.6731 17.8239 15.6707C17.9378 15.5346 17.9996 15.3696 18 15.2V6.13268C18 6.12708 17.9967 6.12227 17.9964 6.11668ZM8.8195 0.588024C8.92427 0.514019 9.07264 0.514019 9.17741 0.588024L9.86953 1.06565H8.12945L8.8195 0.588024ZM0.974723 15.4667L8.81954 10.05C8.92438 9.97613 9.07264 9.97613 9.17744 10.05L17.0243 15.4667H0.974723ZM17.4 15.0509L9.54674 9.62916C9.22508 9.4064 8.77425 9.4064 8.45259 9.62916L0.599095 15.0509V6.53883L5.51545 9.9324C5.64645 10.0227 5.83497 10.0015 5.93654 9.88506C6.03811 9.76861 6.01428 9.60104 5.88328 9.51075L0.888621 6.06333L2.99923 4.60536V6.66603C2.99923 6.81332 3.13357 6.9327 3.29923 6.9327C3.46493 6.9327 3.59924 6.81329 3.59924 6.66603V1.8657C3.59924 1.71841 3.73354 1.59903 3.89924 1.59903H14.0997C14.2654 1.59903 14.3997 1.71841 14.3997 1.8657V6.66603C14.3997 6.81332 14.5341 6.9327 14.6998 6.9327C14.8655 6.9327 14.9998 6.81329 14.9998 6.66603V4.60536L17.1104 6.06333L12.107 9.51691C12.021 9.57488 11.9766 9.66951 11.9908 9.76467C12.0051 9.85984 12.0758 9.94084 12.176 9.97675C12.2761 10.0127 12.3903 9.99797 12.4748 9.93825L17.3999 6.53883V15.0509H17.4Z" fill="white"/>
<path d="M12.5997 6.39945V5.33272C12.5997 3.56529 10.9879 2.13251 8.99954 2.13251C7.01121 2.13251 5.39936 3.56529 5.39936 5.33272C5.39936 7.10015 7.01121 8.53294 8.99954 8.53294C9.16524 8.53294 9.29954 8.41355 9.29954 8.26626C9.29954 8.11897 9.16524 7.99959 8.99954 7.99959C7.34261 7.99959 5.9994 6.8056 5.9994 5.33275C5.9994 3.8599 7.34261 2.66592 8.99954 2.66592C10.6565 2.66592 11.9997 3.8599 11.9997 5.33275V6.39948C11.9997 6.69406 11.731 6.93286 11.3996 6.93286C11.0682 6.93286 10.7996 6.69406 10.7996 6.39948V5.33275C10.7996 5.18546 10.6653 5.06608 10.4996 5.06608C10.3339 5.06608 10.1996 5.18546 10.1996 5.33275C10.1996 5.92189 9.66231 6.39948 8.99954 6.39948C8.33678 6.39948 7.79949 5.92189 7.79949 5.33275C7.79949 4.74362 8.33678 4.26603 8.99954 4.26603C9.16524 4.26603 9.29954 4.14664 9.29954 3.99935C9.29954 3.85206 9.16524 3.73268 8.99954 3.73268C8.1939 3.73108 7.48514 4.20552 7.26435 4.89426C7.04356 5.58299 7.36445 6.31826 8.05003 6.69441C8.73561 7.07056 9.61885 6.99599 10.2125 6.5118C10.2778 7.07578 10.8293 7.49512 11.4662 7.46515C12.1032 7.43514 12.6017 6.96643 12.5997 6.39945Z" fill="white"/>
</svg>
