<svg width="12" height="12" viewBox="0 0 12 12" fill="none" xmlns="http://www.w3.org/2000/svg">
<path d="M7.68045 1.37321C5.92611 -0.45741 3.07079 -0.45741 1.31645 1.37321C-0.437513 3.20422 -0.437513 6.18329 1.31645 8.0143C2.87873 9.64412 5.31192 9.81872 7.06512 8.54606C7.10201 8.72821 7.18643 8.90203 7.3222 9.0437L9.87708 11.7097C10.2494 12.0974 10.851 12.0974 11.2215 11.7097C11.5934 11.3216 11.5934 10.6938 11.2215 10.3068L8.66657 7.64008C8.53157 7.4996 8.36461 7.4111 8.19005 7.37261C9.41045 5.54279 9.24311 3.00421 7.68045 1.37321ZM6.87382 7.1726C5.56406 8.53932 3.43246 8.53932 2.12307 7.1726C0.814066 5.80589 0.814066 3.58201 2.12307 2.2153C3.43246 0.848983 5.56406 0.848983 6.87382 2.2153C8.18359 3.58201 8.18359 5.80589 6.87382 7.1726Z" fill="white"/>
</svg>
