<svg width="119" height="120" viewBox="0 0 119 120" fill="none" xmlns="http://www.w3.org/2000/svg">
<path d="M118 60C118 92.5927 91.8008 119 59.5 119C27.1992 119 1 92.5927 1 60C1 27.4073 27.1992 1 59.5 1C91.8008 1 118 27.4073 118 60Z" stroke="#7DBA21" stroke-width="2"/>
<path d="M73.5459 26.8226C73.5459 26.8216 73.5459 26.8207 73.5459 26.8197C73.5459 26.4201 73.3132 26.1098 73.0422 25.9201C72.7694 25.7291 72.419 25.6265 72.0557 25.6264H72.0556H65.4379V25.6167H72.0556C72.636 25.6167 73.1413 25.7828 73.4883 26.0256C73.8371 26.2698 73.9883 26.5585 73.9883 26.8196V26.8197C73.9883 26.8703 73.9825 26.9224 73.9705 26.9755L73.5459 26.8226Z" fill="black" stroke="#7DBA21"/>
<path d="M61.565 25.6264V25.6167H62.3571V25.6264H61.565Z" fill="black" stroke="#7DBA21"/>
<path d="M43.4546 34.6616V34.6519H67.9387V34.6616H43.4546Z" fill="black" stroke="#7DBA21"/>
<path d="M43.4546 53.0671V53.0574H67.9387V53.0671H43.4546Z" fill="black" stroke="#7DBA21"/>
<path d="M77.9571 35.8208L74.8471 37.9978L74.6991 37.8941L77.0758 36.2305L77.6609 35.8209L77.0758 35.4112L76.764 35.193L76.9122 35.0893L77.9571 35.8208Z" fill="black" stroke="#7DBA21"/>
<path d="M72.9839 39.3395L72.7832 39.199L72.9248 39.0999L73.1255 39.2404L72.9839 39.3395Z" fill="black" stroke="#7DBA21"/>
<path d="M82.5488 31.9295L82.5489 31.9295C83.2013 32.3861 83.5 32.9463 83.5 33.488C83.5 34.0296 83.2012 34.5896 82.5487 35.0463L82.0271 35.4114L82.3139 35.821L82.0271 35.4114L81.778 35.5858L82.0647 35.9954L81.778 35.5858L81.0073 36.1254L72.2072 42.2854L71.9939 42.4347V42.6951V57.1084H38.6758V54.1124V53.6124H38.1758H34.5V26.8195C34.5 26.0829 34.9276 25.3629 35.7227 24.8064C36.5159 24.2511 37.6373 23.8916 38.897 23.8916H72.0555C73.3152 23.8916 74.4366 24.2511 75.2298 24.8064C76.0249 25.3629 76.4525 26.0829 76.4525 26.8196C76.4525 27.5165 76.0707 28.1965 75.3562 28.7399C74.6421 29.283 73.6253 29.6614 72.4626 29.734L71.9937 29.7633V30.233V34.076V35.0363L72.7804 34.4856L75.4242 32.635L76.4442 31.9211L76.1575 31.5114L76.4442 31.921L76.9658 31.5559C77.6409 31.0834 78.5536 30.8325 79.4905 30.8325C80.4275 30.8325 81.3402 31.0834 82.0152 31.5559L82.3019 31.1463L82.0152 31.5559L82.5488 31.9295ZM42.3643 23.9013H40.7827L42.0769 24.8105C42.8685 25.3666 43.2941 26.0847 43.2941 26.8196C43.2941 27.5543 42.8684 28.2725 42.0769 28.8286L40.7828 29.7377H42.3643H72.0556C73.0984 29.7377 74.0648 29.4416 74.7839 28.9383C75.5011 28.4362 76.0101 27.6947 76.0101 26.8196C76.0101 25.9444 75.5012 25.2029 74.7839 24.7008C74.0649 24.1974 73.0984 23.9013 72.0556 23.9013H42.3643ZM38.1758 53.6027H38.6758V53.1027V29.7376H38.8971C39.9398 29.7376 40.9063 29.4416 41.6253 28.9382C42.3426 28.4362 42.8516 27.6947 42.8516 26.8195C42.8516 25.9444 42.3426 25.2028 41.6254 24.7008C40.9063 24.1974 39.9398 23.9013 38.8971 23.9013C37.8543 23.9013 36.8879 24.1974 36.1688 24.7007C35.4515 25.2028 34.9425 25.9443 34.9425 26.8195V53.1027V53.6027H35.4425H38.1758ZM71.0515 57.0987H71.5515V56.5987V43.705V42.7447L70.7648 43.2954L66.5663 46.2343L65.2669 47.1439H66.8531H67.938V47.1537H65.4106H65.253L65.1238 47.2441L63.2616 48.5476L59.745 49.2773L59.8466 50.2669H67.9381V50.2766H43.4543V50.2669H55.1645H55.4958L55.6249 49.9619L56.52 47.8485L56.8143 47.1535H56.0596H43.4543V47.1438H56.4871H56.8183L56.9475 46.8388L57.7119 45.0339L57.8459 44.9401L59.1454 44.0305H57.5592H43.4543V44.0207H59.0016H59.1592L59.2883 43.9303L62.3073 41.8171L63.6067 40.9074H62.0205H43.4543V40.8977H63.4629H63.6205L63.7496 40.8073L66.7687 38.694L68.0682 37.7844H66.482H43.4543V37.7746H67.9243H68.0819L68.211 37.6842L71.3381 35.4953L71.5514 35.346V35.0857V30.2475V29.7475H71.0514H39.6182H39.1182V30.2475V56.5987V57.0987H39.6182H71.0515ZM58.5806 45.5201L58.0744 45.1657L57.8334 45.7347L56.3914 49.14L56.0195 50.0184L56.9534 49.8245L61.818 48.8151L62.9516 48.5798L62.0032 47.9159L58.5806 45.5201ZM62.7966 48.2641L63.0833 48.4648L63.3701 48.2641L80.5607 36.2306L81.1459 35.821L80.5607 35.4113L76.4442 32.5298L76.1575 32.3291L75.8708 32.5298L58.6801 44.5633L58.0949 44.9729L58.6801 45.3825L62.7966 48.2641ZM82.1024 35.1514L82.1025 35.1514C82.6794 34.7475 83.0577 34.1633 83.0578 33.4879V33.4878C83.0578 32.8123 82.6794 32.2281 82.1025 31.8242L81.8157 32.2338L82.1024 31.8242L81.5688 31.4506L81.2821 31.8603L81.5688 31.4506C80.9749 31.0349 80.2206 30.8417 79.4906 30.8417C78.7607 30.8417 78.0064 31.0349 77.4125 31.4507L76.8909 31.8158L76.3057 32.2254L76.8909 32.635L81.0074 35.5166L81.2941 35.7173L81.5809 35.5166L82.1024 35.1514Z" fill="black" stroke="#7DBA21"/>
<path d="M29.964 81.88V83H24.938V81.88H26.926V76.42C26.842 76.532 26.7113 76.6533 26.534 76.784C26.3567 76.9053 26.156 77.022 25.932 77.134C25.7173 77.2367 25.4933 77.3253 25.26 77.4C25.0267 77.4747 24.8213 77.512 24.644 77.512V76.336C24.8493 76.336 25.078 76.28 25.33 76.168C25.582 76.0467 25.82 75.9113 26.044 75.762C26.2773 75.6033 26.4733 75.454 26.632 75.314C26.8 75.1647 26.898 75.062 26.926 75.006H28.186V81.88H29.964ZM31.1987 83V81.432H32.2347V83H31.1987ZM37.8638 83V73.06H42.1198C42.5585 73.06 42.9598 73.1533 43.3238 73.34C43.6972 73.5173 44.0145 73.76 44.2758 74.068C44.5465 74.3667 44.7565 74.7073 44.9058 75.09C45.0552 75.4633 45.1298 75.846 45.1298 76.238C45.1298 76.5833 45.0785 76.9193 44.9758 77.246C44.8825 77.5633 44.7425 77.8527 44.5558 78.114C44.3785 78.3753 44.1592 78.5993 43.8978 78.786C43.6458 78.9727 43.3612 79.108 43.0438 79.192L45.4518 83H44.0238L41.7558 79.43H39.1238V83H37.8638ZM39.1238 78.31H42.1338C42.3952 78.31 42.6285 78.254 42.8338 78.142C43.0485 78.03 43.2305 77.8807 43.3798 77.694C43.5292 77.498 43.6458 77.274 43.7298 77.022C43.8138 76.77 43.8558 76.5087 43.8558 76.238C43.8558 75.958 43.8045 75.6967 43.7018 75.454C43.6085 75.202 43.4778 74.9827 43.3098 74.796C43.1512 74.6 42.9598 74.4507 42.7358 74.348C42.5212 74.236 42.2925 74.18 42.0498 74.18H39.1238V78.31ZM49.8706 83.14C49.3199 83.14 48.8159 83.042 48.3586 82.846C47.9012 82.6407 47.5092 82.3653 47.1826 82.02C46.8559 81.6747 46.5992 81.2733 46.4126 80.816C46.2352 80.3493 46.1466 79.8593 46.1466 79.346C46.1466 78.8327 46.2352 78.3473 46.4126 77.89C46.5992 77.4327 46.8559 77.0313 47.1826 76.686C47.5186 76.3407 47.9152 76.07 48.3726 75.874C48.8299 75.6687 49.3339 75.566 49.8846 75.566C50.4352 75.566 50.9346 75.6687 51.3826 75.874C51.8399 76.0793 52.2272 76.3547 52.5446 76.7C52.8619 77.036 53.1046 77.4327 53.2726 77.89C53.4499 78.338 53.5386 78.8047 53.5386 79.29C53.5386 79.3927 53.5339 79.486 53.5246 79.57C53.5246 79.654 53.5199 79.7193 53.5106 79.766H47.4486C47.4766 80.13 47.5606 80.4613 47.7006 80.76C47.8406 81.0587 48.0226 81.3153 48.2466 81.53C48.4706 81.7447 48.7226 81.9127 49.0026 82.034C49.2919 82.1553 49.5952 82.216 49.9126 82.216C50.1366 82.216 50.3559 82.188 50.5706 82.132C50.7852 82.0667 50.9859 81.9827 51.1726 81.88C51.3592 81.7773 51.5226 81.6513 51.6626 81.502C51.8119 81.3527 51.9239 81.1847 51.9986 80.998L53.0626 81.292C52.9412 81.5627 52.7732 81.81 52.5586 82.034C52.3532 82.258 52.1106 82.454 51.8306 82.622C51.5599 82.7807 51.2566 82.9067 50.9206 83C50.5846 83.0933 50.2346 83.14 49.8706 83.14ZM52.3766 78.856C52.3486 78.5107 52.2599 78.1933 52.1106 77.904C51.9706 77.6053 51.7886 77.3533 51.5646 77.148C51.3499 76.9427 51.0979 76.784 50.8086 76.672C50.5192 76.5507 50.2112 76.49 49.8846 76.49C49.5579 76.49 49.2499 76.5507 48.9606 76.672C48.6712 76.784 48.4146 76.9473 48.1906 77.162C47.9759 77.3673 47.7986 77.6147 47.6586 77.904C47.5279 78.1933 47.4486 78.5107 47.4206 78.856H52.3766ZM57.8201 83.084C57.3254 83.084 56.8681 82.9813 56.4481 82.776C56.0374 82.5707 55.6827 82.2953 55.3841 81.95C55.0854 81.6047 54.8521 81.208 54.6841 80.76C54.5254 80.312 54.4461 79.8453 54.4461 79.36C54.4461 78.8467 54.5254 78.3613 54.6841 77.904C54.8521 77.4373 55.0854 77.0313 55.3841 76.686C55.6827 76.3407 56.0374 76.07 56.4481 75.874C56.8681 75.6687 57.3301 75.566 57.8341 75.566C58.4501 75.566 58.9821 75.7153 59.4301 76.014C59.8781 76.3127 60.2561 76.6907 60.5641 77.148V75.692H61.6561V82.916C61.6561 83.4387 61.5581 83.896 61.3621 84.288C61.1661 84.6893 60.9001 85.0253 60.5641 85.296C60.2281 85.5667 59.8314 85.772 59.3741 85.912C58.9261 86.052 58.4454 86.122 57.9321 86.122C57.1014 86.122 56.4247 85.9773 55.9021 85.688C55.3887 85.408 54.9594 85.016 54.6141 84.512L55.3281 83.882C55.6174 84.3113 55.9907 84.6333 56.4481 84.848C56.9054 85.0627 57.4001 85.17 57.9321 85.17C58.2681 85.17 58.5854 85.1233 58.8841 85.03C59.1921 84.9367 59.4581 84.7967 59.6821 84.61C59.9061 84.4233 60.0834 84.19 60.2141 83.91C60.3541 83.63 60.4241 83.2987 60.4241 82.916V81.628C60.2841 81.852 60.1161 82.0573 59.9201 82.244C59.7334 82.4213 59.5281 82.5753 59.3041 82.706C59.0801 82.8273 58.8421 82.9207 58.5901 82.986C58.3381 83.0513 58.0814 83.084 57.8201 83.084ZM58.1981 82.076C58.4594 82.076 58.7114 82.0293 58.9541 81.936C59.1967 81.8427 59.4207 81.7213 59.6261 81.572C59.8314 81.4133 60.0041 81.236 60.1441 81.04C60.2841 80.844 60.3774 80.6433 60.4241 80.438V78.338C60.3214 78.086 60.1861 77.8573 60.0181 77.652C59.8594 77.4467 59.6774 77.2693 59.4721 77.12C59.2667 76.9613 59.0427 76.84 58.8001 76.756C58.5667 76.672 58.3287 76.63 58.0861 76.63C57.7127 76.63 57.3767 76.7093 57.0781 76.868C56.7887 77.0267 56.5414 77.2367 56.3361 77.498C56.1307 77.7593 55.9721 78.058 55.8601 78.394C55.7481 78.7207 55.6921 79.052 55.6921 79.388C55.6921 79.752 55.7574 80.0973 55.8881 80.424C56.0187 80.7507 56.1961 81.0353 56.4201 81.278C56.6441 81.5207 56.9054 81.7167 57.2041 81.866C57.5121 82.006 57.8434 82.076 58.1981 82.076ZM63.6444 83V75.692H64.8764V83H63.6444ZM63.6444 74.32V72.78H64.8764V74.32H63.6444ZM69.433 83.14C68.845 83.14 68.2663 83.0513 67.697 82.874C67.1276 82.6873 66.6376 82.4213 66.227 82.076L66.759 81.25C67.1883 81.5767 67.6176 81.824 68.047 81.992C68.4763 82.1507 68.929 82.23 69.405 82.23C69.937 82.23 70.357 82.1273 70.665 81.922C70.9823 81.7073 71.141 81.4087 71.141 81.026C71.141 80.8487 71.099 80.6993 71.015 80.578C70.931 80.4473 70.805 80.3353 70.637 80.242C70.469 80.1487 70.2543 80.0647 69.993 79.99C69.7316 79.9153 69.4283 79.836 69.083 79.752C68.6443 79.64 68.2663 79.5327 67.949 79.43C67.6316 79.3273 67.3703 79.206 67.165 79.066C66.9596 78.926 66.8103 78.758 66.717 78.562C66.6236 78.366 66.577 78.1233 66.577 77.834C66.577 77.47 66.647 77.148 66.787 76.868C66.9363 76.5787 67.137 76.3407 67.389 76.154C67.641 75.958 67.935 75.8133 68.271 75.72C68.6163 75.6173 68.985 75.566 69.377 75.566C69.9276 75.566 70.441 75.6547 70.917 75.832C71.393 76.0093 71.7943 76.2427 72.121 76.532L71.561 77.274C71.253 77.0033 70.9076 76.8027 70.525 76.672C70.1423 76.532 69.7503 76.462 69.349 76.462C68.901 76.462 68.5183 76.56 68.201 76.756C67.893 76.9427 67.739 77.246 67.739 77.666C67.739 77.834 67.767 77.974 67.823 78.086C67.8883 78.198 67.991 78.296 68.131 78.38C68.271 78.464 68.4483 78.5387 68.663 78.604C68.887 78.6693 69.153 78.7393 69.461 78.814C69.9463 78.926 70.3663 79.0427 70.721 79.164C71.085 79.276 71.3836 79.4113 71.617 79.57C71.8596 79.7287 72.037 79.9153 72.149 80.13C72.2703 80.3447 72.331 80.606 72.331 80.914C72.331 81.5953 72.0696 82.1367 71.547 82.538C71.0243 82.9393 70.3196 83.14 69.433 83.14ZM77.5689 82.636C77.4943 82.6733 77.3963 82.72 77.2749 82.776C77.1536 82.8227 77.0136 82.874 76.8549 82.93C76.7056 82.9767 76.5376 83.014 76.3509 83.042C76.1736 83.0793 75.9869 83.098 75.7909 83.098C75.3429 83.098 74.9556 82.9767 74.6289 82.734C74.3023 82.482 74.1389 82.0947 74.1389 81.572V76.658H73.1449V75.692H74.1389V73.256H75.3709V75.692H77.0089V76.658H75.3709V81.194C75.3896 81.4647 75.4783 81.6607 75.6369 81.782C75.7956 81.9033 75.9823 81.964 76.1969 81.964C76.4396 81.964 76.6589 81.9267 76.8549 81.852C77.0603 81.768 77.2003 81.7027 77.2749 81.656L77.5689 82.636ZM81.8491 83.14C81.2984 83.14 80.7944 83.042 80.3371 82.846C79.8798 82.6407 79.4878 82.3653 79.1611 82.02C78.8344 81.6747 78.5778 81.2733 78.3911 80.816C78.2138 80.3493 78.1251 79.8593 78.1251 79.346C78.1251 78.8327 78.2138 78.3473 78.3911 77.89C78.5778 77.4327 78.8344 77.0313 79.1611 76.686C79.4971 76.3407 79.8938 76.07 80.3511 75.874C80.8084 75.6687 81.3124 75.566 81.8631 75.566C82.4138 75.566 82.9131 75.6687 83.3611 75.874C83.8184 76.0793 84.2058 76.3547 84.5231 76.7C84.8404 77.036 85.0831 77.4327 85.2511 77.89C85.4284 78.338 85.5171 78.8047 85.5171 79.29C85.5171 79.3927 85.5124 79.486 85.5031 79.57C85.5031 79.654 85.4984 79.7193 85.4891 79.766H79.4271C79.4551 80.13 79.5391 80.4613 79.6791 80.76C79.8191 81.0587 80.0011 81.3153 80.2251 81.53C80.4491 81.7447 80.7011 81.9127 80.9811 82.034C81.2704 82.1553 81.5738 82.216 81.8911 82.216C82.1151 82.216 82.3344 82.188 82.5491 82.132C82.7638 82.0667 82.9644 81.9827 83.1511 81.88C83.3378 81.7773 83.5011 81.6513 83.6411 81.502C83.7904 81.3527 83.9024 81.1847 83.9771 80.998L85.0411 81.292C84.9198 81.5627 84.7518 81.81 84.5371 82.034C84.3318 82.258 84.0891 82.454 83.8091 82.622C83.5384 82.7807 83.2351 82.9067 82.8991 83C82.5631 83.0933 82.2131 83.14 81.8491 83.14ZM84.3551 78.856C84.3271 78.5107 84.2384 78.1933 84.0891 77.904C83.9491 77.6053 83.7671 77.3533 83.5431 77.148C83.3284 76.9427 83.0764 76.784 82.7871 76.672C82.4978 76.5507 82.1898 76.49 81.8631 76.49C81.5364 76.49 81.2284 76.5507 80.9391 76.672C80.6498 76.784 80.3931 76.9473 80.1691 77.162C79.9544 77.3673 79.7771 77.6147 79.6371 77.904C79.5064 78.1933 79.4271 78.5107 79.3991 78.856H84.3551ZM90.7506 76.77C90.1346 76.7887 89.5886 76.9473 89.1126 77.246C88.6459 77.5447 88.3146 77.96 88.1186 78.492V83H86.8866V75.692H88.0346V77.386C88.2866 76.882 88.6179 76.476 89.0286 76.168C89.4392 75.8507 89.8779 75.6733 90.3446 75.636C90.4379 75.636 90.5172 75.636 90.5826 75.636C90.6479 75.636 90.7039 75.6407 90.7506 75.65V76.77Z" fill="#7DBA21"/>
</svg>
