<svg width="16" height="18" viewBox="0 0 16 18" fill="none" xmlns="http://www.w3.org/2000/svg">
<path d="M7.99582 0C3.58808 0 0 3.23774 0 7.21509C0 7.66792 0.046001 8.12453 0.142185 8.56981C0.146367 8.59623 0.163095 8.67547 0.19655 8.81132C0.317825 9.29811 0.497648 9.77736 0.731835 10.234C1.59331 12.0642 3.48772 14.8755 7.64454 17.8868C7.74909 17.9623 7.87454 18 8 18C8.12546 18 8.25092 17.9623 8.35546 17.8868C12.5081 14.8755 14.4067 12.0642 15.2682 10.234C15.5024 9.77736 15.6822 9.30189 15.8035 8.81132C15.8369 8.67547 15.8536 8.59623 15.8578 8.56981C15.9498 8.12453 16 7.66792 16 7.21509C15.9916 3.23774 12.4036 0 7.99582 0ZM14.7371 8.39245C14.7371 8.4 14.7329 8.40755 14.7329 8.41509C14.7287 8.43396 14.7162 8.49057 14.6952 8.57736C14.6952 8.58113 14.6952 8.58113 14.6952 8.58491C14.5907 9.00755 14.436 9.41887 14.2311 9.81509C14.2269 9.81887 14.2269 9.82642 14.2227 9.83019C13.4407 11.5019 11.7261 14.0528 7.99582 16.834C4.26555 14.0528 2.55097 11.5019 1.76895 9.83019C1.76477 9.82642 1.76477 9.81887 1.76059 9.81509C1.55985 9.42264 1.40512 9.00755 1.29639 8.58491C1.29639 8.58113 1.29639 8.58113 1.29639 8.57736C1.2713 8.49057 1.26294 8.43396 1.25876 8.41509C1.25876 8.40755 1.25457 8.4 1.25457 8.38868C1.17094 8 1.12912 7.60755 1.12912 7.21132C1.12912 3.79623 4.21119 1.01509 7.99582 1.01509C11.7805 1.01509 14.8625 3.79623 14.8625 7.21132C14.8625 7.61132 14.8207 8.00755 14.7371 8.39245Z" fill="white"/>
<path d="M7.99582 2.7132C5.19812 2.7132 2.91898 4.7698 2.91898 7.29433C2.91898 9.81886 5.19812 11.8755 7.99582 11.8755C10.7935 11.8755 13.0727 9.81886 13.0727 7.29433C13.0727 4.7698 10.7935 2.7132 7.99582 2.7132ZM7.99582 10.8566C5.81704 10.8566 4.04809 9.25659 4.04809 7.29433C4.04809 5.33206 5.82123 3.73206 7.99582 3.73206C10.1704 3.73206 11.9435 5.33206 11.9435 7.29433C11.9435 9.25659 10.1746 10.8566 7.99582 10.8566Z" fill="white"/>
</svg>
