<svg width="15" height="19" viewBox="0 0 15 19" fill="none" xmlns="http://www.w3.org/2000/svg">
<path d="M7.49608 0C3.36383 0 0 3.41761 0 7.61593C0 8.09392 0.0431259 8.57589 0.133298 9.04591C0.137219 9.0738 0.152901 9.15744 0.184266 9.30084C0.297961 9.81468 0.466545 10.3205 0.686095 10.8025C1.49373 12.7344 3.26973 15.7019 7.16675 18.8805C7.26477 18.9602 7.38238 19 7.5 19C7.61762 19 7.73523 18.9602 7.83325 18.8805C11.7263 15.7019 13.5063 12.7344 14.3139 10.8025C14.5335 10.3205 14.702 9.81866 14.8157 9.30084C14.8471 9.15744 14.8628 9.0738 14.8667 9.04591C14.953 8.57589 15 8.09392 15 7.61593C14.9922 3.41761 11.6283 0 7.49608 0ZM13.816 8.8587C13.816 8.86667 13.8121 8.87463 13.8121 8.8826C13.8082 8.90252 13.7964 8.96226 13.7768 9.05388C13.7768 9.05786 13.7768 9.05786 13.7768 9.06185C13.6788 9.50797 13.5337 9.94214 13.3416 10.3604C13.3377 10.3644 13.3377 10.3723 13.3338 10.3763C12.6006 12.1409 10.9932 14.8335 7.49608 17.7692C3.99895 14.8335 2.39153 12.1409 1.65839 10.3763C1.65447 10.3723 1.65447 10.3644 1.65055 10.3604C1.46236 9.94612 1.3173 9.50797 1.21537 9.06185C1.21537 9.05786 1.21537 9.05786 1.21537 9.05388C1.19185 8.96226 1.184 8.90252 1.18008 8.8826C1.18008 8.87463 1.17616 8.86667 1.17616 8.85472C1.09775 8.44444 1.05855 8.03019 1.05855 7.61195C1.05855 4.00713 3.94799 1.07149 7.49608 1.07149C11.0442 1.07149 13.9336 4.00713 13.9336 7.61195C13.9336 8.03417 13.8944 8.45241 13.816 8.8587Z" fill="#7DBA21"/>
<path d="M7.49608 2.86389C4.87324 2.86389 2.73654 5.03475 2.73654 7.69953C2.73654 10.3643 4.87324 12.5352 7.49608 12.5352C10.1189 12.5352 12.2556 10.3643 12.2556 7.69953C12.2556 5.03475 10.1189 2.86389 7.49608 2.86389ZM7.49608 11.4597C5.45348 11.4597 3.79509 9.77081 3.79509 7.69953C3.79509 5.62825 5.4574 3.93936 7.49608 3.93936C9.53477 3.93936 11.1971 5.62825 11.1971 7.69953C11.1971 9.77081 9.53869 11.4597 7.49608 11.4597Z" fill="#7DBA21"/>
</svg>
