<svg width="18" height="16" viewBox="0 0 18 16" fill="none" xmlns="http://www.w3.org/2000/svg">
<path d="M15.533 8.08376H14.615C14.615 5.42068 12.1784 3.25525 9.18404 3.25525L9.18349 2.44021C12.6853 2.43874 15.533 4.97104 15.533 8.08376ZM9.18349 3.84792L9.18294 4.66295C11.3061 4.66295 13.0308 6.19751 13.0297 8.08327L13.9477 8.08278C13.9477 5.74787 11.8119 3.84792 9.18349 3.84792ZM9 0C4.03686 0 0 3.58832 0 8.00049C0 12.4117 4.03686 16 9 16C9.30692 16 9.55489 15.7796 9.55489 15.5073C9.55489 15.2335 9.30692 15.0126 9 15.0126C4.64905 15.0126 1.11033 11.866 1.11033 8.00049C1.11033 4.13298 4.64905 0.986959 9 0.986959C13.3509 0.986959 16.8891 4.13347 16.8891 8.00049C16.8891 9.61636 15.9215 11.2175 14.5368 11.8964C14.0337 12.1423 13.4882 12.2643 12.9063 12.2691C13.2556 12.0845 13.5581 11.8347 13.783 11.5202C13.827 11.461 13.8854 11.4086 13.9141 11.3444C14.0948 10.9579 14.1108 10.5196 14.2199 10.1111C14.3538 9.58991 11.6532 8.5716 11.4185 9.22256C11.3336 9.46354 11.2036 10.2257 11.0333 10.4265C10.8818 10.6058 10.5082 10.5205 10.2745 10.3442C9.65903 9.87792 8.9719 9.19268 8.36907 8.65095L8.37017 8.65046C8.35474 8.63626 8.33601 8.62058 8.31948 8.6054C8.30239 8.5912 8.28531 8.57503 8.26823 8.56034V8.56132C7.65879 8.02449 6.88734 7.41517 6.36331 6.86708C6.16494 6.6594 6.06906 6.32731 6.27074 6.19262C6.49666 6.04029 7.35407 5.92665 7.62518 5.85024C8.35584 5.64256 7.2119 3.24056 6.6245 3.36007C6.16604 3.45558 5.67287 3.47125 5.23811 3.63093C5.16427 3.65885 5.10696 3.7093 5.04029 3.74848C3.49795 4.6174 3.29903 6.72748 4.80444 8.29976C5.37807 8.90124 5.97649 9.48313 6.59254 10.0513L6.58924 10.0533C6.60632 10.0685 6.62395 10.0827 6.64158 10.0973C6.65812 10.1125 6.6741 10.1277 6.69008 10.1439L6.69338 10.1409C7.33258 10.6885 8.09025 11.4953 9.32125 12.2251C11.9128 13.7635 13.9014 13.334 15.0729 12.7629C17.0952 11.773 18 9.65848 18 8.00245C18 3.58832 13.9626 0 9 0Z" fill="white"/>
</svg>
